/* XPM */
static char *d6c520546b0e4f3cf7f89d0350daffa9MB5Oic144JsOkahE[] = {
/* columns rows colors chars-per-pixel */
"40 42 95 2 ",
"   c None",
".  c #2A2A2A",
"X  c gray17",
"o  c #2C2C2C",
"O  c #2D2D2D",
"+  c gray18",
"@  c gray21",
"#  c #373737",
"$  c #685E1F",
"%  c #72661D",
"&  c #72651E",
"*  c #776A1C",
"=  c #7A6C1C",
"-  c #4F4924",
";  c #514A23",
":  c #544D23",
">  c #564E22",
",  c #574F22",
"<  c #585022",
"1  c #595122",
"2  c #655B20",
"3  c #675D20",
"4  c #676036",
"5  c #505050",
"6  c #726E54",
"7  c gray39",
"8  c #676767",
"9  c #727272",
"0  c #88771A",
"q  c #88781A",
"w  c #8E7C19",
"e  c #8F7D19",
"r  c #978417",
"t  c #A28D15",
"y  c #AC9613",
"u  c #B9A111",
"i  c #BBA210",
"p  c #BEA410",
"a  c #AE9D38",
"s  c #C3A90F",
"d  c #CCB00E",
"f  c #D6B90C",
"g  c #D9BB0B",
"h  c #DCBD0B",
"j  c #C1A710",
"k  c #E3C309",
"l  c #E9C808",
"z  c #EDCC08",
"x  c #F5D206",
"c  c #F7D406",
"v  c #FBD705",
"b  c #FBD80D",
"n  c #FBD80F",
"m  c #FBDA1B",
"M  c #FBDB21",
"N  c #FBDD31",
"B  c #FBDF3B",
"V  c #FBDF3D",
"C  c #FBE03D",
"Z  c #FBE040",
"A  c #FBE147",
"S  c #FBE252",
"D  c #FBE87B",
"F  c #AAAAAA",
"G  c #FBEA83",
"H  c #FBEA85",
"J  c #FBEA86",
"K  c #DDD8B8",
"L  c #FBEEA3",
"P  c #F0E7AC",
"I  c #F7ECAD",
"U  c #F6EEBF",
"Y  c #FBF0B2",
"T  c #FBF1B2",
"R  c #F9F0BD",
"E  c #C3C3C3",
"W  c #C4C4C1",
"Q  c #DEDBCC",
"!  c gray84",
"~  c gray85",
"^  c #F5EFCD",
"/  c #FBF3C4",
"(  c #FBF5CE",
")  c #FBF5D2",
"_  c #FBF7DF",
"`  c gray91",
"'  c #F7F6EF",
"]  c gray94",
"[  c #F1F1F1",
"{  c gray96",
"}  c #FBFAF7",
"|  c #F9F9F9",
" . c gray98",
".. c #FBFBFA",
"X. c #FBFBFB",
/* pixels */
"                                                                                ",
"                        X X X X X X X X . . X X X X . . X                       ",
"                        X X X X X X X X . . X X X . . . X                       ",
"            X X X X X X X X X X X X X X . . X X X X . . X X X X X X             ",
"            X X X X X X X X o o X X X o o + + X . . . . X . . . . .             ",
"            X X X o X Q  .R P T Y Y Y Y Y Y I $ $ $ $ $ - . . . . X             ",
"      X X X X X o # 7  .X.X.D v v v v v v v v v v v v v y . . . X X             ",
"      . X X ` ] ] X. .X.X.X.D v v v v v v v v v v v v v y . . . X X             ",
"      X X o X. .' C C C C V J / / / / / / / U 1 , = v v l d d % . . . . .       ",
"      X X + X. .( v v v v v J } ........ . .{ . . : v v v v v 0 . . . . X       ",
"      X X o X.X.( v v v v v J X...' ) ) ) ) ^ . . : v v v v v q . . . . X       ",
"X X X X X o X.X.( v v v v v J X...A v v v v x . . : v v v v v 0 . . . . X       ",
"X X X X X X X.X.( v v v v v J X...S v v v v x . . : v v v v v q . . . . X       ",
". X X X X o b C Z v v v v v J X...S v v v v x . . : v v v v v g p i > . X X X   ",
". . X ~  .} m b v v v v v v J X...S v v v v x . . : v v v v v v v x $ . X X . . ",
". . X !  .} v v v v v v v v J X...S v v v v x . . : v v v v v v v x $ . X X . . ",
"X X X ~ X.} v v v v v v v v J X.X.S v v v v x . . ; v v v v v v v c $ . . . . . ",
"X X X ~ X.} v v v v v v v v J X.X.S v v v v x . X : v v v v v v v c $ . . . . . ",
"X X X ~ X.} v v v v v v v v J X.X.S v v v v x . X : v v v v v v v c $ . . . . . ",
". . o ~ X.} v v v v v v v v J X.X.S v v v v x . X ; v v v v v v v c $ . . . . . ",
". . X ! X.} v v v v v v v v J X.X.S v v v v x X X : v v v v v v v c $ . . . . . ",
". . X ~ X.} v v v v v v v v J X.X.S v v v v x X . : v v v v v v v c $ . . . . . ",
"X X X ~ X.} v v v v v v v v J X.X.S v v v v v X . ; v v v v v v v c $ . . . . . ",
". X X ~ X.} v v v v v v v v J X.X.S v v v v x X . : v v v v v v v c $ . . . . . ",
". . X ~  .} v v v v v v v v J }  .S v v v v x . . : v v v v v v v c $ . . . . . ",
". . X ~ X. .v v v v v v v v J X. .S v v v v x . . : v v v v v v v c $ . . . . . ",
". . X ~  .} v v v v v v v v J  . .S v v v v x . . : v v v v v v v c $ . . . . . ",
". . X !  .} v v v v v v v v J  . .S v v v v x . . : v v v v v v v x $ . . . . . ",
". . X F E W A A V v v v v v J X.X.S v v v v x . . : v v v v v h j p 1 . X X X   ",
". . . X X o X.X.( v v v v v J X.X.S v v v v x . . : v v v v v q . . . . X       ",
". . X X X @ X.X.( v v v v v J X.X.S v v v v x . . : v v v v v q . . X X X       ",
"      . . o X.X.( v v v v v a 8 8 4 3 3 $ $ $ . . : v v v v v q . X X X X       ",
"      X X X  . .( v v v v v e X . . . . . . . . . ; v v v v v 0 . . . . X       ",
"      X X X ! ! K N N M v v t - - - - - - - - - - % v v l f f * . . . . X       ",
"      X . . . . 5 X.X.L v v v v v v v v v v v v v v v v y . . . X X             ",
"      X . . . X 5  .X.L v v v v v v v v v v v v v v v v y . . X X X             ",
"            X X @ 9 9 6 % % u v v v v v v v x % % % % % > . X X X .             ",
"            X X X X X X X X r v v v v v v v x . . X . . . . X X . .             ",
"            X X X X X X . . w l l l l l l l k . . . . . . X X X X X             ",
"                        . X X X . . . . . . . . . . . . .                       ",
"                        X X X . . . . . . . . . . . X X X                       ",
"                        X X . . . . . . . . . . . X X X                         "
};
