/* XPM */
static char *result[] = {
/* columns rows colors chars-per-pixel */
"50 50 155 2 ",
"   c #0E141E",
".  c #151515",
"X  c #191516",
"o  c #171917",
"O  c #1A1817",
"+  c #15161B",
"@  c #1A161A",
"#  c #14191D",
"$  c #1B1A1C",
"%  c #211B16",
"&  c #211C1D",
"*  c #25221F",
"=  c #0F1C21",
"-  c #151721",
";  c #141B23",
":  c #1B1B22",
">  c #221D23",
",  c #261E29",
"<  c #172022",
"1  c #182124",
"2  c #14212A",
"3  c #1A212C",
"4  c #252223",
"5  c #292424",
"6  c #2C2926",
"7  c #26212A",
"8  c #2A232B",
"9  c #2D2A2A",
"0  c #332C25",
"q  c #312E2C",
"w  c #35312D",
"e  c #39342E",
"r  c #2C2632",
"t  c #2E2932",
"y  c #302735",
"u  c #312B35",
"i  c #342C3B",
"p  c #3B2F3E",
"a  c #353231",
"s  c #3A3533",
"d  c #3D3A36",
"f  c #37313D",
"g  c #39313C",
"h  c #3F3E3C",
"j  c #413D39",
"k  c #44403D",
"l  c #4A453D",
"z  c #372D40",
"x  c #392F42",
"c  c #373240",
"v  c #3B3243",
"b  c #3E354A",
"n  c #403646",
"m  c #42364C",
"M  c #43394D",
"N  c #443652",
"B  c #463B52",
"V  c #493C55",
"C  c #473D58",
"Z  c #4B3D5A",
"A  c #4E3E60",
"S  c #3F4141",
"D  c #434243",
"F  c #494542",
"G  c #4C4943",
"H  c #464448",
"J  c #4C4A4A",
"K  c #514B44",
"L  c #534E4B",
"P  c #53514E",
"I  c #5B554E",
"U  c #5F584F",
"Y  c #4D4356",
"T  c #4E415A",
"R  c #514F50",
"E  c #51445E",
"W  c #545151",
"Q  c #5B5751",
"!  c #5D5A53",
"~  c #615754",
"^  c #625C54",
"/  c #635E59",
"(  c #67635F",
")  c #6A645D",
"_  c #70685F",
"`  c #4F4060",
"'  c #544563",
"]  c #584762",
"[  c #554965",
"{  c #594966",
"}  c #564769",
"|  c #57496B",
" . c #5C4B6D",
".. c #5D4C71",
"X. c #62506D",
"o. c #604F71",
"O. c #635175",
"+. c #625078",
"@. c #69567B",
"#. c #6D5A7D",
"$. c #6E6762",
"%. c #6E6A64",
"&. c #736D64",
"*. c #716D68",
"=. c #786F68",
"-. c #7B756C",
";. c #7C7870",
":. c #857D74",
">. c #817D79",
",. c #858174",
"<. c #888275",
"1. c #8C857B",
"2. c #8F887C",
"3. c #928A7D",
"4. c #6E5A81",
"5. c #725D84",
"6. c #755D89",
"7. c #958D84",
"8. c #989084",
"9. c #9B948A",
"0. c #9F988C",
"q. c #A49C8F",
"w. c #A69E94",
"e. c #A99F92",
"r. c #A7A094",
"t. c #AAA194",
"y. c #ADA59A",
"u. c #AFA89C",
"i. c #B0A69A",
"p. c #B4AA9D",
"a. c #B4ABA0",
"s. c #B9AFA3",
"d. c #BBB3A5",
"f. c #BDB5AA",
"g. c #C0B5A7",
"h. c #C4BAAC",
"j. c #C9BEAE",
"k. c #CABFB2",
"l. c #CCC2B3",
"z. c #CFC6BA",
"x. c #D1C5B6",
"c. c #D5C8B7",
"v. c #D1C7B9",
"b. c #D5CCBD",
"n. c #D9CEBE",
"m. c #DDD3BF",
"M. c #DDD3C2",
"N. c #E1D5C2",
"B. c #E5D9C7",
"V. c #E5DAC9",
"C. c #EADCCA",
"Z. c #EDE3CE",
"A. c #F0E5CB",
"S. c #EDE1D0",
"D. c #242F3A",
/* pixels */
"D.D.D.D.D.D.D.D.D.D.D.D.D.D.D.D.D.D.D.D.D.D.D.D.D.D.D.D.D.D.D.D.D.D.D.D.D.D.D.D.D.D.D.D.D.D.D.D.D.D.",
"D.D.D.D.D.D.D.D.D.D.D.D.D.D.D.D.D.D.D.D.D.D.D.D.D.D.D.D.D.D.D.D.D.D.D.D.D.D.D.D.D.D.D.D.D.D.D.D.D.D.",
"D.D.D.D.D.D.D.D.D.D.D.D.D.D.D.D.D.D.D.D.1 : $ 1 : : 1 $ 1 1 D.D.D.D.D.D.D.D.D.D.D.D.D.D.D.D.D.D.D.D.",
"D.D.D.D.D.D.D.D.D.D.D.D.D.D.D.D.D.; $ 7 u M T [ { { { E M i 7 $ < D.D.D.D.D.D.D.D.D.D.D.D.D.D.D.D.D.",
"D.D.D.D.D.D.D.D.D.D.D.D.D.D.D.$ : u Y ..#.5.5.6.6.6.6.5.5.#. .B r $ ; D.D.D.D.D.D.D.D.D.D.D.D.D.D.D.",
"D.D.D.D.D.D.D.D.D.D.D.D.D.1 $ t Y o.o.o.O.5.5.5.6.5.5.5.5.#.o.o.} v 8 : 3 D.D.D.D.D.D.D.D.D.D.D.D.D.",
"D.D.D.D.D.D.D.D.D.D.D.D.; : n | ...... .O.5.5.5.6.6.5.5.#.o.{ { T Z Z g > ; D.D.D.D.D.D.D.D.D.D.D.D.",
"D.D.D.D.D.D.D.D.D.D.D.$ 7 N { T V  ... . .O.#.5.5.#.@.o. .{ m E b u N Z m 8 $ D.D.D.D.D.D.D.D.D.D.D.",
"D.D.D.D.D.D.D.D.D.D.$ r N T  .N 7 T .. ..... .O.o.o.o... .T 8 ' ' r 8 N Z N r : D.D.D.D.D.D.D.D.D.D.",
"D.D.D.D.D.D.D.D.D.$ 7 B Z Z | | 8 , V  ..... . ....... .] r r { o.' u , M Z N r # D.D.D.D.D.D.D.D.D.",
"D.D.D.D.D.D.D.D.# , M b V V Z  .E 8 > v [ ........ ...o.v $ M  ... .{ m v N Z N 8 - D.D.D.D.D.D.D.D.",
"D.D.D.D.D.D.D.; > b B r N Z Z  . .' i , 8 M ' .... . .m : u  ......... . .' Z A M , ; D.D.D.D.D.D.D.",
"D.D.D.D.D.D.: : p Z p , B Z A  . .o. .E M v Z  ...{ n > r ' .. . . ....... .Z Z Z v @ 1 D.D.D.D.D.D.",
"D.D.D.D.D.D.@ r Z Z , t V Z ' o. ..... .....{ [ B 8 > i ] .. . .o. ....... .' Z Z Z y # D.D.D.D.D.D.",
"D.D.D.D.D.; > m C i > m V Z Z V M N E {  .V z r , r M { .. . .' Z V V A  . .A Z Z Z m > ; D.D.D.D.D.",
"D.D.D.D.D.# r Z b , x Z Z V p , , @ : 8 N V N M B Z Z ' { M r > $ > 8 z Z } A Z Z Z Z u - D.D.D.D.D.",
"D.D.D.D.D.@ v V y g V Z Z Z N f 4 O 6 w : 7 f b B B M c 7 & q q $ , f B T Z Z V Z Z Z n $ 3 D.D.D.D.",
"D.D.D.D.; & M B N V V Z Z M t @ 5 ( 9.t.1.Q e 5 4 4 7 w P <.t.t.-.q X 8 M Z Z V N Z V B : : D.D.D.D.",
"D.D.D.D.; , V V Z V m N v > X o & s =.h.m.l.s.0.2.1.9.s.l.M.h.=.j , $ X : v V V m V V V 8 : D.D.D.D.",
"D.D.D.D.# 7 B B m m V i $ 6 / L w @ X k p.C.B.M.n.n.M.V.C.d.G @ X q G ! q @ i Z Z Z Z V 8 ; D.D.D.D.",
"D.D.D.D.- , N V N N v $ 7 ( k 6 q 8 7 o 9 9.M.Z.V.C.C.V.w.w @ , 8 w 6 d ) 6 @ v V Z Z V 8 # D.D.D.D.",
"D.D.D.D.: > B Z Z m > % $.l 6 J W L J S 8 * &.l.C.C.x.-.5 8 k J L P J w j *.& : m Z V C > # D.D.D.D.",
"D.D.D.D.; $ m Z V r . s 9.6 D W W R P W D 4 r.B.C.V.N.i.5 S P P P P W H 5 9.k . i V Z M & # D.D.D.D.",
"D.D.D.D.D.@ i Z m $ . d p.6 S W W W R D 4 ! m.C.C.C.A.N.) 4 S R W P W D 5 u.F . 8 N N g @ D.D.D.D.D.",
"D.D.D.D.D.# , N v > , 4 y.) 4 D D d 6 e -.b.Z.c.9.8.l.C.n.:.s 9 s D D 6 P a.9 @ 7 N C 7 # D.D.D.D.D.",
"D.D.D.D.D.D.$ u x v v O U d./ h F ! 3.j.V.C.i.l 6 6 j e.C.B.l.7.( H j U d._ # u u C i $ D.D.D.D.D.D.",
"D.D.D.D.D.D.# $ t M Z i $ j G I t.V.Z.C.C.h.e q J J a q s.C.V.j.b.u.I G h 1 t Y M i $ - D.D.D.D.D.D.",
"D.D.D.D.D.D.D.D.$ > v N v i r : s f.N.B.Z.s.w 6 u q q q i.C.B.h.p.j $ r u v N v 5 $ D.D.D.D.D.D.D.D.",
"D.D.D.D.D.D.D.D.D.# $ 7 v N V x @ 0 2.C.C.C.g.t.d.g.t.d.V.C.C.l.k @ i Z N c 8 $   D.D.D.D.D.D.D.D.D.",
"D.D.D.D.D.D.D.D.D.D.D.# # : 8 t $ . 1.Z.f.3.V.Z.m.s.C.Z.i.8.C.l.0 $ u r : @ + D.D.D.D.D.D.D.D.D.D.D.",
"D.D.D.D.D.D.D.D.D.D.D.D.D.D.# o X X $.z.$.k M.Z.e.e l.Z.<.q d.7.* o @ # D.D.D.D.D.D.D.D.D.D.D.D.D.D.",
"D.D.D.D.D.D.D.D.D.D.D.D.D.D.# > @ X O w 5 w ,.8.%.* <.3.I $ q * $ X $ $ D.D.D.D.D.D.D.D.D.D.D.D.D.D.",
"D.D.D.D.D.D.D.D.D.D.D.D.D.# t v 4 @ @ @ . . . @ o X O X X $ & , > @ f 8 $ D.D.D.D.D.D.D.D.D.D.D.D.D.",
"D.D.D.D.D.D.D.D.D.D.D.D.< 4 M c > $ g i O 4 a 5 4 $ > * & @ & , O $ v n : 2 D.D.D.D.D.D.D.D.D.D.D.D.",
"D.D.D.D.D.D.D.D.D.D.D.D.# & v f $ 5 v v X &.p.t.9.&.~ 8.&.@ i V r $ v g $ # D.D.D.D.D.D.D.D.D.D.D.D.",
"D.D.D.D.D.D.D.D.D.D.D.# q l 6 1 @ g x i & 0.l.2.K k K p.d.5 u ] m # $ q G e ; D.D.D.D.D.D.D.D.D.D.D.",
"D.D.D.D.D.D.D.D.D.D.# w t.s.0.F @ V x 8 5 ;.G X : , . d >.q , Z M $ k q.d.r.7 ; D.D.D.D.D.D.D.D.D.D.",
"D.D.D.D.D.D.D.D.D.D.# d k.N.l.G : [ m > & q k s & & w G q % > m n 7 k v.V.u.5 ; D.D.D.D.D.D.D.D.D.D.",
"D.D.D.D.D.D.D.D.D.D.D.# K q.u.e 7 [ T @ Q h.8.3.e.t.j.l.h./ $ i B u 6 7.:.w = D.D.D.D.D.D.D.D.D.D.D.",
"D.D.D.D.D.D.D.D.D.D.D.D.o O 4 X t | Z @ d 2.=.F 2.3.) =.1.j X y ' v X $ X D.D.D.D.D.D.D.D.D.D.D.D.D.",
"D.D.D.D.D.D.D.D.D.D.D.D.2 $ : X 8 ' M $ $ X # - - #   + o $ o f ' u # D.D.D.D.D.D.D.D.D.D.D.D.D.D.D.",
"D.D.D.D.D.D.D.D.D.D.D.D.D.D.D.D.# 7 8 @ * o D.D.D.D.D.D.o & o 7 8 - D.D.D.D.D.D.D.D.D.D.D.D.D.D.D.D.",
"D.D.D.D.D.D.D.D.D.D.D.D.D.D.D.D.D.# $ a 7.~ o D.D.D.D.+ L 9.d $ o D.D.D.D.D.D.D.D.D.D.D.D.D.D.D.D.D.",
"D.D.D.D.D.D.D.D.D.D.D.D.D.D.D.D.D.+ K h.v.! . D.D.D.D.+ L z.k.I + D.D.D.D.D.D.D.D.D.D.D.D.D.D.D.D.D.",
"D.D.D.D.D.D.D.D.D.D.D.D.D.D.D.D.D.- 5 U K $ D.D.D.D.D.D.o G U 6   D.D.D.D.D.D.D.D.D.D.D.D.D.D.D.D.D.",
"D.D.D.D.D.D.D.D.D.D.D.D.D.D.D.D.D.D.D.D.D.D.D.D.D.D.D.D.D.D.D.D.D.D.D.D.D.D.D.D.D.D.D.D.D.D.D.D.D.D.",
"D.D.D.D.D.D.D.D.D.D.D.D.D.D.D.D.D.D.D.D.D.D.D.D.D.D.D.D.D.D.D.D.D.D.D.D.D.D.D.D.D.D.D.D.D.D.D.D.D.D.",
"D.D.D.D.D.D.D.D.D.D.D.D.D.D.D.D.D.D.D.D.D.D.D.D.D.D.D.D.D.D.D.D.D.D.D.D.D.D.D.D.D.D.D.D.D.D.D.D.D.D.",
"D.D.D.D.D.D.D.D.D.D.D.D.D.D.D.D.D.D.D.D.D.D.D.D.D.D.D.D.D.D.D.D.D.D.D.D.D.D.D.D.D.D.D.D.D.D.D.D.D.D.",
"D.D.D.D.D.D.D.D.D.D.D.D.D.D.D.D.D.D.D.D.D.D.D.D.D.D.D.D.D.D.D.D.D.D.D.D.D.D.D.D.D.D.D.D.D.D.D.D.D.D."
};
