/* XPM */
static char *result[] = {
/* columns rows colors chars-per-pixel */
"36 36 115 2 ",
"   c #030203",
".  c #0E0D0E",
"X  c #151615",
"o  c #323032",
"O  c #412C3A",
"+  c #554C52",
"@  c #654359",
"#  c #635E62",
"$  c #7D6B77",
"%  c #7E6F79",
"&  c #747073",
"*  c #914278",
"=  c #92517E",
"-  c #826177",
";  c #BE3D95",
":  c #AE488E",
">  c #BF579F",
",  c #B26C9B",
"<  c #C04197",
"1  c #C4449C",
"2  c #C44D9E",
"3  c #C2529E",
"4  c #C947A1",
"5  c #C64EA1",
"6  c #CC4BA4",
"7  c #CF4DA8",
"8  c #D14EA9",
"9  c #C653A2",
"0  c #CA54A5",
"q  c #C75BA5",
"w  c #CA5CA7",
"e  c #CF52A8",
"r  c #CD58A9",
"t  c #D453AD",
"y  c #D755B0",
"u  c #DA56B2",
"i  c #D659B1",
"p  c #DB5BB5",
"a  c #DF5CB8",
"s  c #E25FBB",
"d  c #C466A6",
"f  c #CE60AB",
"g  c #CE6DAF",
"h  c #D065AE",
"j  c #C572AA",
"k  c #C57DAD",
"l  c #D961B5",
"z  c #D669B5",
"x  c #DE63BA",
"c  c #DD6BBB",
"v  c #D677B9",
"b  c #DB73BC",
"n  c #DA7ABD",
"m  c #E561BE",
"M  c #E16BBF",
"N  c #DD7EC1",
"B  c #E764C1",
"V  c #E965C3",
"C  c #E36DC2",
"Z  c #EE69C7",
"A  c #EE6CC9",
"S  c #E474C4",
"D  c #E47CC5",
"F  c #EE74CC",
"G  c #E779C8",
"H  c #EC7CCD",
"J  c #F07BCF",
"K  c #EF7FD0",
"L  c #F07DD0",
"P  c #BB93AE",
"I  c #B5AAB2",
"U  c #B9B7B8",
"Y  c #BDBBBD",
"T  c #CB82B4",
"R  c #CF8EBA",
"E  c #D985BF",
"W  c #D08AB9",
"Q  c #D391BC",
"!  c #DD81C2",
"~  c #D98FC3",
"^  c #DE90C6",
"/  c #DC98C6",
"(  c #DE99C9",
")  c #E181C5",
"_  c #E785CB",
"`  c #EB83CE",
"'  c #E18DC8",
"]  c #EB89CF",
"[  c #EE83D1",
"{  c #EE8BD3",
"}  c #F085D2",
"|  c #F18ED6",
" . c #EC93D3",
".. c #EF9DD8",
"X. c #F093D7",
"o. c #F297D9",
"O. c #F29BDA",
"+. c #CFA8C2",
"@. c #D4AAC6",
"#. c #DDB0CE",
"$. c #D9BED0",
"%. c #EEA0D9",
"&. c #F3A4DE",
"*. c #F3A8DF",
"=. c #F3A7E0",
"-. c #F3ABE1",
";. c #F5B5E4",
":. c #E9C4DC",
">. c #E7CADD",
",. c #ECD6E5",
"<. c #EBEAEB",
"1. c #F3EFF1",
"2. c #F5F1F4",
"3. c #FDFDFD",
"4. c None",
/* pixels */
"4.4.4.4.4.4.4.4.4.4.4.4.4.4.4.4.4.4.4.4.4.4.4.4.4.4.4.4.4.4.4.4.4.4.4.4.",
"4.4.4.4.4.4.4.4.4.4.4.4.4.4.4.4.4.4.4.4.4.4.4.4.4.4.4.4.4.4.4.4.4.4.4.4.",
"4.4.4.4.4.4.4.4.4.4.4.4.4.4.4.4.4.4.4.4.4.4.4.4.4.4.4.4.4.4.4.4.4.4.4.4.",
"4.4.4.4.4.4.4.4.4.4.4.4.4.4.4.4.4.4.4.3 4.4.4.4.4.4.4.4.4.4.4.4.4.4.4.4.",
"4.4.4.4.4.4.4.4.4.4.4.4.4.4.4.4.4.4.M D 4.4.4.4.4.4.4.4.4.4.4.4.4.4.4.4.",
"4.4.4.4.4.4.4.4.4.4.4.4.n 9 l C C x Z ` 9 4.4.4.4.4.4.4.4.4.4.4.4.4.4.4.",
"4.4.4.4.4.4.4.4.4.4.4.e L G  .O.o.| F F c i 4.4.4.4.4.4.4.4.4.4.4.4.4.4.",
"4.4.4.4.4.4.4.g ! n 3 t S  .-.-.-.=.&.O.| H m 4.4.4.4.4.4.4.4.4.4.4.4.4.",
"4.4.4.4.4.4.w _ [  .z n ^ E  .&.&.&.-.*.*.O.| M 9 f 4.4.4.4.) h 4.4.4.4.",
"4.4.4.4.4.4.e > : t i c ] %.n H [ { _  .*.-.*.] M ` 0 4.4.N  .r 4.4.4.4.",
"4.4.4.4.4.4.k $ % , = * 9 p S B A F ) n _ *.-.O.i p 1 4.v o.F 6 4.4.4.4.",
"4.4.4.4.4.Q I X O - # + P d p Z Z V } G x } O.=. .c t q { J B 4.4.4.4.4.",
"4.4.4.4.4.:.Y . @ +   . 4.4.p Z Z u u u s A L X.-.&.` m F A B 4.4.4.4.4.",
"4.4.4.4.4.,.3.Y @.& o U 3./ s A F C u p Z Z Z J X.O.} A Z Z B 4.4.4.4.4.",
"4.4.4.4.4.@.3.2.#.2.<.3.3.( ` O.*.;.&.J Z A Z A F } L A Z A B 4.4.4.4.4.",
"4.4.4.4.2 0 T T j 2.3.3.>.' O.| _ ) &.O.F Z Z Z A A A Z Z A B 4.4.4.4.4.",
"4.4.4.q _ l c p 7 R $.@.^ { J V 6 ; t [ A Z Z A Z Z B m B Z Z 5 4.4.4.4.",
"4.4.4.c &.S t s B S N ! G s y 6 6 s B Z Z Z Z A m s u t t s B 0 4.4.4.4.",
"4.4.4.y o.=.H l y i l e 7 0 t a Z A Z A Z Z Z F M 7 t 6 4 8 m 0 4.4.4.4.",
"4.4.1 6 x ..-.O.{ {  . .{ { L Z Z Z Z Z Z Z V t 6 1 t 4.4.4 t 2 4.4.4.4.",
"4.4.4.6 8 p ` o.O.o.{ S C C Z Z Z Z Z Z Z Z V 7 1 6 1 4.4.< 8 4.4.4.4.4.",
"4.4.4.4.6 7 8 t p y t y 8 8 V Z V V s s Z Z Z s t 6 4.4.4.4.< 4.4.4.4.4.",
"4.4.4.4.4.6 7 7 7 7 6 1 6 a V Z u 1 1 s Z Z V t 8 4.4.4.4.4.4.4.4.4.4.4.",
"4.4.4.4.4.4.1 4 1 1 1 6 s Z Z Z V u u Z Z B u 1 1 4.4.4.4.4.4.4.4.4.4.4.",
"4.4.4.4.4.4.1 6 1 1 6 u Z Z Z Z Z A Z Z B t 1 ; 4.4.4.4.4.4.4.4.4.4.4.4.",
"4.4.4.4.4.4.4.1 t 1 4 u B V Z V Z V B s 8 1 1 < 4.4.4.4.4.4.4.4.4.4.4.4.",
"4.4.4.4.4.4.4.4.1 t 6 4 8 u a a a u 8 4 4 6 6 4.4.4.4.4.4.4.4.4.4.4.4.4.",
"4.4.4.4.4.4.4.4.4.4.6 6 4 ; < 4 4 4 4 6 6 1 4.4.4.4.4.4.4.4.4.4.4.4.4.4.",
"4.4.4.4.4.4.4.4.4.4.4.1 6 1 1 6 6 8 6 1 4.4.4.4.4.4.4.4.4.4.4.4.4.4.4.4.",
"4.4.4.4.4.4.4.4.4.4.4.4.4.4.4.4.4.4.4.4.4.4.4.4.4.4.4.4.4.4.4.4.4.4.4.4.",
"4.4.4.4.4.4.4.4.4.4.4.4.4.4.4.4.4.4.4.4.4.4.4.4.4.4.4.4.4.4.4.4.4.4.4.4.",
"4.4.4.4.4.4.4.4.4.4.4.4.4.4.4.4.4.4.4.4.4.4.4.4.4.4.4.4.4.4.4.4.4.4.4.4.",
"4.4.4.4.4.4.4.4.4.4.4.4.4.4.4.4.4.4.4.4.4.4.4.4.4.4.4.4.4.4.4.4.4.4.4.4.",
"4.4.4.4.4.4.4.4.4.4.4.4.4.4.4.4.4.4.4.4.4.4.4.4.4.4.4.4.4.4.4.4.4.4.4.4.",
"4.4.4.4.4.4.4.4.4.4.4.4.4.4.4.4.4.4.4.4.4.4.4.4.4.4.4.4.4.4.4.4.4.4.4.4.",
"4.4.4.4.4.4.4.4.4.4.4.4.4.4.4.4.4.4.4.4.4.4.4.4.4.4.4.4.4.4.4.4.4.4.4.4."
};
