/* XPM */
static char *result[] = {
/* columns rows colors chars-per-pixel */
"36 36 177 2 ",
"   c #020202",
".  c #080707",
"X  c #100505",
"o  c #1E0D15",
"O  c #150B12",
"+  c #1C1119",
"@  c #2C0E0C",
"#  c #310D0C",
"$  c #270D20",
"%  c #3F2639",
"&  c #501C3F",
"*  c #47263D",
"=  c #652B3E",
"-  c #581F42",
";  c #5C284C",
":  c #463040",
">  c #64224F",
",  c #6D4A64",
"<  c #BE291F",
"1  c #B83028",
"2  c #AE2737",
"3  c #BC2E36",
"4  c #B23A38",
"5  c #C62B1D",
"6  c #CA3329",
"7  c #D4382E",
"8  c #D73E36",
"9  c #CB3935",
"0  c #DE423C",
"q  c #812E42",
"w  c #AC2844",
"e  c #AF3E41",
"r  c #822E68",
"t  c #89336E",
"y  c #983875",
"u  c #C83B41",
"i  c #C43D69",
"p  c #805273",
"a  c #B84662",
"s  c #B74F71",
"d  c #8B677F",
"f  c #D0485B",
"g  c #D24948",
"h  c #E64E4B",
"j  c #E44945",
"k  c #E04F52",
"l  c #DA5770",
"z  c #D14C68",
"x  c #A53F86",
"c  c #9E4884",
"v  c #975D87",
"b  c #AE4B8F",
"n  c #BF4096",
"m  c #B75C9D",
"M  c #8D7A87",
"N  c #9D738F",
"B  c #A57495",
"V  c #BE7EA8",
"C  c #A970B6",
"Z  c #C34081",
"A  c #D24D8A",
"S  c #CD4C95",
"D  c #C4459C",
"F  c #C24B9D",
"G  c #CA479B",
"H  c #D45F99",
"J  c #D9578C",
"K  c #DE609A",
"L  c #E96893",
"P  c #C947A1",
"I  c #CC4BA4",
"U  c #CF4FA9",
"Y  c #D14FA7",
"T  c #D14FAA",
"R  c #C653A1",
"E  c #CB54A5",
"W  c #CC5AA9",
"Q  c #D652A6",
"!  c #D452AC",
"~  c #D05EAD",
"^  c #D755B0",
"/  c #D957B2",
"(  c #DA5AB4",
")  c #DE5BB8",
"_  c #D45CB0",
"`  c #E25DBB",
"'  c #C262A4",
"]  c #C869AB",
"[  c #DC60A0",
"{  c #D363B1",
"}  c #D46BB4",
"|  c #DB64BC",
" . c #DD6ABB",
".. c #D868B6",
"X. c #CE7DB5",
"o. c #DC74BC",
"O. c #DA79B9",
"+. c #C275A8",
"@. c #E462BD",
"#. c #8D7FCA",
"$. c #A86FC1",
"%. c #CB70C6",
"&. c #DF7EC2",
"*. c #E665C1",
"=. c #EA66C3",
"-. c #E16CC1",
";. c #ED69C7",
":. c #EE6CC9",
">. c #E374C3",
",. c #E47CC6",
"<. c #EE73CC",
"1. c #E77BC8",
"2. c #EC7ACD",
"3. c #E673C8",
"4. c #F073CD",
"5. c #F178CE",
"6. c #EF7DD0",
"7. c #7D8BCB",
"8. c #79A2DD",
"9. c #8F888C",
"0. c #958D93",
"q. c #9C989B",
"w. c #A08297",
"e. c #A5929F",
"r. c #A9A6A9",
"t. c #A6A2A5",
"y. c #B5A9B1",
"u. c #B6B3B5",
"i. c #BDBBBC",
"p. c #B9B7B8",
"a. c #CC86B7",
"s. c #D38CBC",
"d. c #D984BF",
"f. c #CB97BB",
"g. c #D297BF",
"h. c #ED83B9",
"j. c #C0BDBF",
"k. c #998DCE",
"l. c #9A92CF",
"z. c #AD91D2",
"x. c #96A9D9",
"c. c #85AAE2",
"v. c #CB85CD",
"b. c #DA8DC5",
"n. c #C997C1",
"m. c #CC9DD6",
"M. c #D79CC4",
"N. c #E682C9",
"B. c #E68DCC",
"V. c #E886C8",
"C. c #E192CC",
"Z. c #EF81D1",
"A. c #ED8AD1",
"S. c #F084D2",
"D. c #F18BD5",
"F. c #EE94D5",
"G. c #F191D6",
"H. c #F295D9",
"J. c #F29BDA",
"K. c #DAADCC",
"L. c #CBB9C5",
"P. c #C7B8C3",
"I. c #F3A3DE",
"U. c #E1B9D4",
"Y. c #CDCBCC",
"T. c #C6C3C5",
"R. c #D5C8D1",
"E. c #D3D2D3",
"W. c #DDDDDD",
"Q. c #DBD4D9",
"!. c #E1CADA",
"~. c #E4D6DF",
"^. c #EBEAEB",
"/. c #E6E4E9",
"(. c #F3F2F2",
"). c #FDFEFD",
"_. c None",
/* pixels */
"_._._._._._._._._._._._._._._._._._._._._._._._._._._._._._._._._._._._.",
"_._._._._._._._._._._._._._._._.. _._._._._._._._._._._._._._._._._._._.",
"_._._._._._._._._._._._._._._..   _._._._._._._._._._._._._._._._._._._.",
"_._._._._._._._._.. _._._._._.      _._.R _._._._._._._._._._._._._._._.",
"_._._._._._._._..   _._._._._._.o   & | 1._._._._._._._._._._._._._._._.",
"_._._._._._._._.    _._.} } E @.m + ; =.2.{ _._._._._._._._._._._._._._.",
"_._._._._._._._.  _._._.@.N.>.D.H.p %  .@.o.( U _._._._._._._._._._._._.",
"_._._._._._._.  * ' R I U W W _ A.a.: b.G.G.G.N.{ _._._._._._._._.F _._.",
"_._._._._._.O * ] Z.o.b N e.P.f.W B., b.I.J.J.J.G...R W _._._._.} V._._.",
"_._._._._._.t ' X.] c M /.W.u./.] -.v X.N.J.J.J.J.A.>.2.R _._...J.>._._.",
"_._._._._._.a.R.i.L.M Y.u.).u.^.M.( &.| } &.G.J.J.H.-.` F _.{ J.S.( _._.",
"_._._._._.a.E.E.t.y.r.E.i.^.u.(.K._ <.;.@.| 6.Z.H.J.F.1.{ W F.G.;.^ _._.",
"_._._._._.U./.q.0.B Q.T.i.W.u.).K./ :.:.;.:.<.6.Z.D.J.J.J.,.F.<.;.! _._.",
"_._._._._.!.i.r.P.B u.Y.i.i.E.).s.` :.:.:.:.:.<.6.5.A.H.J.G.2.:.;.! _._.",
"_._._._._.!.^.P.s.y 9.u.T.u.)./.C -.:.:.:.:.;.:.:.<.6.S.D.D.2.:.:.! _._.",
"_._._._._.+.M.b./ F d t.u.(.(.f.7.l.v.S.:.:.;.:.:.:.<.<.5.2.<.:.;.^ _._.",
"_._._._._._. .;.:.;.{ f.~.Q.s.B.z.c.x.m.H.6.:.;.;.;.:.:.:.:.:.:.;./ _._.",
"_._._._._._.D T / ( _ _ ..o.3.4.3.#.8.k.I.H.4.;.:.<.( =.*.@.) ;.;.( _._.",
"_._._._._._._._._.D Y S Y ) ` @.` -.$.%.6.G.4.;.*.<. .^ / I I *.;.( _._.",
"_._._._._._._._._.T @.[ K S S s > r D =.;.:.;.;.` / T T U _._.T =.! _._.",
"_._._._._._._._._.U @.o.h.L s +     $ x ;.;.;.;.@.! T ! _._._._./ I _._.",
"_._._._._._._._._.U ) C.h.L = X . # @ - *.;.;.;.;.` / D _._._._._._._._.",
"_._._._._. .1.1.N.1.,.&.O.J > 4 e 1 g a ` ;.;.;.*.T U _._._._._._._._._.",
"_._._._._.1.D.S.S.S.D.A.D.S.O.u 0 j 6 g J ;.;.@.! P _._._._._._._._._._.",
"_._._._._.! ` =.=.=.*.*.=.;.<.z 5 h 6 8 l @.) I D n _._._._._._._._._._.",
"_._._._._.I T ! ! T ! T U ! ` A 5 j 8 7 l Q T I I _._._._._._._._._._._.",
"_._._._._._._.U U U T I D D T Y 3 7 h h f G T I _._._._._._._._._._._._.",
"_._._._._._._._._._.D ! ! I I P Z 3 6 9 i G D _._._._._._._._._._._._._.",
"_._._._._._._._._._._._._.D D I U Z 2 w _._._._._._._._._._._._._._._._.",
"_._._._._._._._._._._._._._._._._._._._._._._._._._._._._._._._._._._._.",
"_._._._._._._._._._._._._._._._._._._._._._._._._._._._._._._._._._._._.",
"_._._._._._._._._._._._._._._._._._._._._._._._._._._._._._._._._._._._.",
"_._._._._._._._._._._._._._._._._._._._._._._._._._._._._._._._._._._._.",
"_._._._._._._._._._._._._._._._._._._._._._._._._._._._._._._._._._._._.",
"_._._._._._._._._._._._._._._._._._._._._._._._._._._._._._._._._._._._.",
"_._._._._._._._._._._._._._._._._._._._._._._._._._._._._._._._._._._._."
};
