/* XPM */
static char *result[] = {
/* columns rows colors chars-per-pixel */
"36 36 113 2 ",
"   c #000000",
".  c #0F100F",
"X  c #171215",
"o  c #221C20",
"O  c #291C26",
"+  c #3F1C34",
"@  c #392934",
"#  c #3E2838",
"$  c #3D363B",
"%  c #451F3A",
"&  c #42283A",
"*  c #502241",
"=  c #593950",
"-  c #723561",
";  c #776C73",
":  c #884776",
">  c #825776",
",  c #805B74",
"<  c #805E78",
"1  c #BB3B92",
"2  c #242F3A",
"3  c #9E4181",
"4  c #915982",
"5  c #BF4097",
"6  c #BD4C9A",
"7  c #C4449C",
"8  c #C4499D",
"9  c #C947A1",
"0  c #C64BA0",
"q  c #CC4CA5",
"w  c #D14EA9",
"e  c #C654A2",
"r  c #CD52A6",
"t  c #C25CA1",
"y  c #C959A7",
"u  c #CF54A9",
"i  c #CD5AA9",
"p  c #D352AC",
"a  c #D15BAD",
"s  c #D756B0",
"d  c #D956B2",
"f  c #D65BB1",
"g  c #DB5BB5",
"h  c #DF5FB9",
"j  c #E15EBA",
"k  c #C465A6",
"l  c #C168A5",
"z  c #C365A9",
"x  c #CE61AC",
"c  c #C66BAB",
"v  c #C96CAB",
"b  c #D162AE",
"n  c #C472AA",
"m  c #D561B3",
"M  c #DA62B6",
"N  c #D56CB5",
"B  c #D96BB7",
"V  c #DD64B9",
"C  c #DC6BBA",
"Z  c #C87CB2",
"A  c #DC75BE",
"S  c #E362BD",
"D  c #E16CBF",
"F  c #DE77C0",
"G  c #E763C0",
"H  c #EA66C4",
"J  c #E46CC2",
"K  c #EE69C7",
"L  c #EE6CC9",
"P  c #E374C3",
"I  c #E874C7",
"U  c #E37BC5",
"Y  c #EC74CA",
"T  c #E77EC9",
"R  c #EC7BCC",
"E  c #F077CF",
"W  c #F07DCF",
"Q  c #EF7FD0",
"!  c #F27AD1",
"~  c #949394",
"^  c #B282A6",
"/  c #BD86AF",
"(  c #B090A6",
")  c #BFA6B7",
"_  c #D587BD",
"`  c #C899B9",
"'  c #DE83C3",
"]  c #D791C2",
"[  c #D49AC1",
"{  c #E180C4",
"}  c #E485C9",
"|  c #EC82CE",
" . c #E38CCA",
".. c #E88FCF",
"X. c #E791CE",
"o. c #E09BCD",
"O. c #EE84D1",
"+. c #ED89D1",
"@. c #F085D3",
"#. c #F089D4",
"$. c #ED95D5",
"%. c #EF9AD8",
"&. c #F193D7",
"*. c #F196D9",
"=. c #F29ADA",
"-. c #D4B3CA",
";. c #F3A4DE",
":. c #E2B9D4",
">. c #F4ABE1",
",. c #F7B2E6",
"<. c #D3C0CD",
"1. c #FEFCFD",
"2. c None",
/* pixels */
"2.2.2.2.2.2.2.2.2.2.2.2.2.2.2.2.2.2.2.2.2.2.2.2.2.2.2.2.2.2.2.2.2.2.2.2.",
"2.2.2.2.2.2.2.2.2.2.2.2.2.2.2.2.2.2.2.N 2.2.2.2.2.2.2.2.2.2.2.2.2.2.2.2.",
"2.2.2.2.2.2.2.2.2.b N 2.2.2.2.2.2.2.2.U 2.2.2.2.2.2.2.2.2.2.2.2.2.2.2.2.",
"2.2.2.2.2.2.2.2.2.2.P 2.2.2.2.2.2.2.F Y 2.2.2.2.2.2.2.2.2.2.2.2.2.2.2.2.",
"2.2.2.2.2.2.2.2.2.2.V T 2.2.2.2.2.2.T L 2.2.2.2.2.2.2.2.2.2.2.2.2.2.2.2.",
"2.2.2.2.2.2.2.2.2.2.p P P 2.2.2.2.m | H 2.2.2.N x 2.2.2.2.2.2.2.2.2.2.2.",
"2.2.2.2.2.2.2.2.2.2.0 g O.m J P J J R H f 2.a U 2.2.2.2.r 2.2.2.2.2.2.2.",
"2.2.2.2.2.2.2.2.2.2.q w L +.&.>.%.+.R Y T T D g 8 2.N P a 2.2.2.2.2.2.2.",
"2.2.2.2.2.2.2.2.2.V P D O.;.,.,.,.;.%.;.;.%.U C r B T g 2.2.2.2.2.2.2.2.",
"2.2.2.2.2.2.3 + 6 R $.$.+.] ^ < / >.;.;.;.} | D P | S 0 2.x X.N 2.2.2.2.",
"2.2.2.2.2.2.0 % - z U Z > @ & 4  .&.%.&.U | P m $.U p 2.2.X.=.g 2.2.2.2.",
"2.2.2.2.2.2.:.;   O = O O : A ! E E E I T | g B ;.$.N e  .=.Y p 2.2.2.2.",
"2.2.2.2.2.[ 1.~ X     2.( A H L L L L L E H w A ;.;.$.U +.E H r 2.2.2.2.",
"2.2.2.2.2.2.2.& & o 2.2.2.i H K K K K K K H d I &.;.;.+.J L H 2.2.2.2.2.",
"2.2.e f u 2.2.; * . 2.2.2.g h M g S K K K K L L R &.;.=.! L S 2.2.2.2.2.",
"2.2.2.s g v [ A c ) 2.2.t B ..$.$.A h K K K K K L W =.=.@.L S 2.2.2.2.2.",
"2.2.2.i D g I E Y ' ] _ ' +.P S D Y H H L K K K K L | @.Y K S 2.2.2.2.2.",
"2.2.2.I ;.J d j S J S D V y k l t s K K K K K K L H L H p S S 2.2.2.2.2.",
"2.2.8 S =.;.| U P P U P m n -.-.` u K K K K K K H I D p 7 g j 2.2.2.2.2.",
"2.2.7 p V Y @.#.+.+.R R R T P C S H K K K K K S p p V a 2 d S 2.2.2.2.2.",
"2.2.2.0 p d d g g d p d G L E L K K K K K K K H j j q p 9 9 p 2.2.2.2.2.",
"2.2.2.2.2.q q q q q q w j K K K K K K K K K K K L S q 7 2.7 7 2.2.2.2.2.",
"2.2.2.2.2.w 9 7 7 w d G K K K K K K K K H K K K H s 9 7 2.2.2.2.2.2.2.2.",
"2.2.2.2.2.q 9 w j H H K K K K K K S d P j K K K S 9 2 e i 2.2.2.2.2.2.2.",
"2.2.2.2.2.2.7 d H H L K K K K K K G w M S H H j S r 1 2.2.2.2.2.2.2.2.2.",
"2.2.2.2.2.7 7 w g G H L K K K K K L g g S j d w g C 2.2.2.2.2.2.2.2.2.2.",
"2.2.2.2.2.0 7 7 p p d g S j j G H G d p C u 9 q 0 V C 2.2.2.2.2.2.2.2.2.",
"2.2.2.2.2.2.2.2.2.w q a g w p q w q 9 7 g a w q 2.2.r 2.2.2.2.2.2.2.2.2.",
"2.2.2.2.2.2.2.2.2.2.2.i a p q q w q w p 0 0 2.2.2.2.2.2.2.2.2.2.2.2.2.2.",
"2.2.2.2.2.2.2.2.2.2.2.N g q 2.2.2.2.q B 2.2.2.2.2.2.2.2.2.2.2.2.2.2.2.2.",
"2.2.2.2.2.2.2.2.2.2.2.N m 2.2.2.2.2.2.m 2.2.2.2.2.2.2.2.2.2.2.2.2.2.2.2.",
"2.2.2.2.2.2.2.2.2.2.2.a u 2.2.2.2.2.2.8 2.2.2.2.2.2.2.2.2.2.2.2.2.2.2.2.",
"2.2.2.2.2.2.2.2.2.2.2.8 2.2.2.2.2.2.2.2.2.2.2.2.2.2.2.2.2.2.2.2.2.2.2.2.",
"2.2.2.2.2.2.2.2.2.2.2.2.2.2.2.2.2.2.2.2.2.2.2.2.2.2.2.2.2.2.2.2.2.2.2.2.",
"2.2.2.2.2.2.2.2.2.2.2.2.2.2.2.2.2.2.2.2.2.2.2.2.2.2.2.2.2.2.2.2.2.2.2.2.",
"2.2.2.2.2.2.2.2.2.2.2.2.2.2.2.2.2.2.2.2.2.2.2.2.2.2.2.2.2.2.2.2.2.2.2.2."
};
