/* XPM */
static char *_202f2d9d9ad425fe48241c3e745365bPywowG384UwR7P0O[] = {
/* columns rows colors chars-per-pixel */
"70 70 162 2 ",
"   c None",
".  c #1B2B0F",
"X  c #1B2C11",
"o  c #1C331A",
"O  c #1F391E",
"+  c #0F2A2F",
"@  c #1D3D27",
"#  c #0F2B30",
"$  c #102C31",
"%  c #143235",
"&  c #16363B",
"*  c #193B3F",
"=  c #173836",
"-  c #1D4634",
";  c #1E4835",
":  c #1F4938",
">  c #25472C",
",  c #204B35",
"<  c #214C3B",
"1  c #2A563A",
"2  c #2E5B39",
"3  c #335B35",
"4  c #3B6A3F",
"5  c #37653C",
"6  c #41753E",
"7  c #193C40",
"8  c #1D4145",
"9  c #1F4548",
"0  c #204843",
"q  c #20464A",
"w  c #21484B",
"e  c #255246",
"r  c #27554C",
"t  c #28564D",
"y  c #2C5B4F",
"u  c #285356",
"i  c #2B5A54",
"p  c #2A5759",
"a  c #2C5C5B",
"s  c #265052",
"d  c #3E6C42",
"f  c #2F605F",
"g  c #35655E",
"h  c #3C6B56",
"j  c #2F5F61",
"k  c #2F6163",
"l  c #316364",
"z  c #36696A",
"x  c #3B6E6A",
"c  c #396A65",
"v  c #3B6F71",
"b  c #3E7274",
"n  c #406E44",
"m  c #447345",
"M  c #417159",
"N  c #41736E",
"B  c #4A7C6C",
"V  c #457867",
"C  c #417375",
"Z  c #457877",
"A  c #4B7F71",
"S  c #467A7B",
"D  c #477A7D",
"F  c #4C8241",
"G  c #518743",
"H  c #528646",
"J  c #579143",
"K  c #589243",
"L  c #5E9945",
"P  c #5F934C",
"I  c #518756",
"U  c #518857",
"Y  c #508759",
"T  c #53895F",
"R  c #649E4C",
"E  c #60944D",
"W  c #659A56",
"Q  c #689C56",
"!  c #649C5D",
"~  c #609151",
"^  c #67A247",
"/  c #67A249",
"(  c #6CA649",
")  c #6FAA4B",
"_  c #6FAA47",
"`  c #72AD47",
"'  c #71AC49",
"]  c #76B14C",
"[  c #79B34D",
"{  c #6CA656",
"}  c #67A05A",
"|  c #6DA65A",
" . c #6FA85A",
".. c #6FA953",
"X. c #75AF51",
"o. c #75B051",
"O. c #7AB553",
"+. c #4D816A",
"@. c #538B64",
"#. c #55866F",
"$. c #5C9467",
"%. c #5F9867",
"&. c #5E956F",
"*. c #4C807B",
"=. c #528677",
"-. c #578B75",
";. c #558B7A",
":. c #598F7F",
">. c #52877E",
",. c #5C917A",
"<. c #5C9277",
"1. c #609867",
"2. c #609868",
"3. c #679E74",
"4. c #689F73",
"5. c #659B7D",
"6. c #689E7F",
"7. c #6BA463",
"8. c #6AA269",
"9. c #6CA276",
"0. c #74A976",
"q. c #82BD55",
"w. c #87C25A",
"e. c #89C45A",
"r. c #90C45D",
"t. c #ABDD5B",
"y. c #AFE05A",
"u. c #B5E457",
"i. c #B4E35A",
"p. c #8BC463",
"a. c #95CF69",
"s. c #94CA62",
"d. c #9ED566",
"f. c #97D16B",
"g. c #99D36C",
"h. c #A0D767",
"j. c #AADE61",
"k. c #B0E375",
"l. c #BBEB7F",
"z. c #497D80",
"x. c #4E8386",
"c. c #4F8488",
"v. c #518683",
"b. c #538884",
"n. c #5A8F82",
"m. c #5F9480",
"M. c #609681",
"N. c #6EA38C",
"B. c #77AC86",
"V. c #79AE8F",
"C. c #78AD90",
"Z. c #B8E892",
"A. c #AADDBF",
"S. c #BEEEA8",
"D. c #C3F3AA",
"F. c #AFE1C2",
"G. c #C6F7D9",
"H. c #C7F8D9",
"J. c #CBFCDB",
"K. c #CBFCDD",
"L. c #CDFEDE",
"P. c #CCFDE0",
/* pixels */
"                                                                                                                                            ",
"                                                                                                                                            ",
"                                                                                                                                            ",
"                                                                                                                                            ",
"                                                                                                                                            ",
"                                                                                                                                            ",
"                                                                                                                                            ",
"                                                                                                                                            ",
"                                                                                                                                            ",
"                                                              l l l k < ; ; ; ; ; ; ; ;                                                     ",
"                                                              l l l a < ; ; ; - ; - ; ;                                                     ",
"                                                              l l l k < ; ; ; - ; ; ; ;                                                     ",
"                                                              l l z l < < , < < < < < <                                                     ",
"                                            l l l l l l l l v z.D D D Z Z Z Z Z Z Z Z c , , , - ; ; ; ;                                     ",
"                                            l l l l l l l k b x.c.x.x.c.v.c.c.v.v.x.c.C - - , - ; - ; ;                                     ",
"                                            l l l l l l k k v x.c.c.x.x.c.x.x.x.x.x.c.N , - - : ; ; ; ;                                     ",
"                                            l k k l k k l k v x.x.x.x.x.x.x.x.x.x.x.c.b - - - - - - - ,                                     ",
"                                    l     z b C C C A B A A =.m.n.n.n.n.n.n.n.m.n.n.m.=.M M M h i r t r e     ;                             ",
"                                    l l l z x.c.c.c.m.5.5.5.5.5.5.5.5.5.5.5.5.5.5.5.5.5.5.9.N.5.x l l l t - ; - ;                           ",
"                                    l l l z x.x.x.x.m.5.5.5.5.5.5.5.5.5.5.5.5.5.5.5.5.5.5.5.5.<.x l l l t ; ; - ;                           ",
"                                    k k k z x.x.x.x.m.5.5.5.5.5.5.5.5.5.M.5.5.5.5.5.5.5.5.5.5.5.x l l l e ; - - ;                           ",
"                                  l z z z x v.v.b.v.N.C.C.C.B.0.0.0.0.9.9.9.9.9.3.3.3.3.5.5.5.5.N x x x f < e < <                           ",
"                          ; - ; - g x.x.x.c.5.5.5.5.A.G.G.G.D.i.y.y.t.e.e.w.w.O.) ) ) | 5.5.5.5.5.5.<.5.B k k k f ; ; ; ;                   ",
"                          ; ; ; ; g x.x.x.v.5.5.5.5.F.K.K.K.D.u.i.i.i.e.w.w.w.O.` ` _  .5.5.5.5.5.5.5.5.+.k l l f ; ; ; ;                   ",
"                          ; ; ; - g v.c.c.b.5.5.5.M.F.P.J.J.D.u.i.i.y.r.e.e.e.O.` ' `  .5.5.5.5.5.5.5.6.+.k l l f - - , -                   ",
"                          ; ; ; - g c.c.c.b.M.6.5.9.F.P.J.J.D.u.i.i.y.e.q.e.w.O._ _ _  .5.5.5.5.5.5.5.5.A l z l f ; - , -                   ",
"                          ; ; ; ; h 5.m.,.N.A.F.F.F.Z.l.Z.l.k.d.h.h.a.m 4 4 4 G L L K R {  . .| 3.5.5.5.,.;.,.-.B = % % =                   ",
"                          ; ; ; - M 5.5.5.V.H.P.L.L.l.u.u.u.j.f.g.g.p.1 - - - 6 K K K L ` _ ` _ 3.5.5.5.5.5.M.9.#.% + $ +                   ",
"                          ; , - - M 5.5.5.V.G.K.L.J.Z.u.u.u.j.g.f.g.p.1 - - : 4 K K K L ' ' ' ' 3.5.5.5.5.5.5.M.#.% # $ $                   ",
"                          - - , - M 5.5.5.C.G.P.L.L.l.u.u.u.j.g.g.g.p.1 - - ; 6 L K K L ' ` ' ' 3.5.6.M.5.5.5.5.#.% # + +                   ",
"                          e e e e V 5.5.5.B.S.D.D.D.k.j.t.j.r.Q Q Q ~ > @ @ > 3 6 6 4 F / / / / 7.8.8.8.4.5.5.5.-.0 8 8 8 &                 ",
"                  ; ; ; ; a l l k A 5.5.5.0.i.i.u.u.d.f.g.g.Q - ; : - X . . . @ ; ; ; 2 J J J K ( ` ` ` 7.5.5.5.<.z l l k * + % $ $         ",
"                  ; ; ; ; a l l l A 5.5.M.0.i.u.i.i.d.f.f.g.Q ; ; ; - X X . X @ : ; - 2 J J J K ( ' ' ' 7.5.5.9.;.l l l k * + + $ #         ",
"                  ; - ; ; f l l l A 5.5.M.0.y.u.i.u.d.f.f.g.Q - ; ; - X X X . @ ; ; - 2 J J J J ( ' ' ' 7.5.5.5.<.z l l k 8 + $ $ $         ",
"                  ; ; ; : f l l k B 5.3.6.0.t.t.y.y.d.a.f.f.! - ; ; - X X . X @ ; ; ; 2 J J J J ( ' ' ` 7.5.5.5.<.l l l k 7 # # $ $         ",
"                  ; - - - f l l l Y X.X.' ` ] [ ] [ w.e.e.e.P ; ; ; - X . X . @ ; ; - 2 J J J J ( ' ' ' 7.5.5.5.<.l l l k - # $ $ $         ",
"                  ; ; ; ; f k l l I ` ` ' ' ' ` ` ` O.e.e.e.P ; ; - - o X . X @ ; ; ; 2 J J J K ( ` ' ' 7.5.,.N.:.z l l k 7 # # $ #         ",
"                  ; ; ; ; a l l l Y ' ` ' ' ' ) ` ` w.e.e.e.P ; ; > - X . X . @ ; ; ; 2 J J J J ( ` ' ` 7.5.9.<.-.l l l k 7 # # $ $         ",
"                  ; ; ; : f l l l Y ` ' ' ' ' ' ` ) q.w.e.e.P ; - ; - X X . X @ ; ; ; 1 J J J J ( ' ' ` 7.M.9.N.<.z l l l 7 # # $ $         ",
"                  ; ; ; : f l l l +.8.8.8.7.' ' ' ` ( ( ( ) F ; ; ; - X . X . @ ; ; - d X.o.o.X.' ' ' ' ..| 7.| ! l l l l 7 # $ $ $         ",
"                  ; ; ; ; f l l k +.5.5.M.3.' ' ` ) L J J J 6 ; ; ; - X X . . @ - - - d e.e.e.e.[ ' ' _ ' ' ` ` R l l l l * + $ $ $         ",
"                  ; ; ; ; a l l k A 6.5.6.9.) ' ` _ L J J K 4 - ; ; - X . . X @ : - - 4 e.e.e.w.] ' ' _ _ ' ` ` R c l l l * + $ $ $         ",
"                  ; ; ; ; a l l l +.M.5.5.3.' ' ` _ L J J K 4 - - - - X . X . @ - : - 5 e.e.e.w.] _ _ ] ` ` ` ` R l l l l * # $ $ $         ",
"                  ; ; ; < i i i a N M.M.,.5.| |  .{ R L L L J d 4 4 5 O o o o 3 d d d H O.q.q.q.| } } Q | |  . .W i u u u * # $ $           ",
"                          ; ; ; - g c.x.c.b.5.5.5.5.{ ` _ _ O.w.w.w.O.1 - : - Q g.a.f.p.` ` _ ) ;.x.x.x.n.5.5.5.#.% $ # $                   ",
"                          ; ; ; - g x.x.x.b.5.5.5.5. ._ ] ] [ w.w.e.O.1 - - - Q g.f.g.p.' ' ` ) ;.c.x.x.n.5.5.5.-.% $ $ #                   ",
"                          ; ; ; - g c.x.x.v.5.5.5.5. .' _ _ [ w.e.e.O.1 : ; ; Q g.f.g.p.' ` ` ) -.x.x.x.n.5.5.5.#.% $ $ $                   ",
"                          ; ; ; - g x.z.x.x.5.5.5.5.| ' ' ) O.w.w.e.O.2 ; , , Q f.f.f.p...) ) ..-.x.x.c.;.5.5.5.#.% $ $ $                   ",
"                          ; ; ; - i z z z x x.v.v.b.5.8.9.4.7.] ] ] ` G F F F R O.o.O. .;.;.;.-.} { { { @.x x x f % # % #                   ",
"                          ; ; ; ; r l l l z x.x.x.x.m.5.5.5.8._ ` ` _ K J K K ^ ` _ ` } x.x.x.x.{ _ ` ` Y l k k a $ # # #                   ",
"                          ; ; ; - t l l l z x.x.x.x.m.5.5.M.8._ ` _ _ K J J K ^ ` ` ` } x.x.x.v.{ ` _ ' Y l l l a % # # $                   ",
"                          ; ; ; - i l l l z x.x.c.c.m.5.5.5.8.` ` ` ` K J J K R ` ` ` Q x.x.x.v.{ ` ` ] U l l z p % # # $                   ",
"                            ;     0 w w q s v C b b >.m.n.n.,.%.%.&.%.@.@.@.@.$.%.%.%.&.n.n.n.:.Y Y U U h 9 9 9 9 %   $                     ",
"                                    # # + & l l l l D c.x.x.x.x.x.x.x.c.x.c.x.x.x.x.x.b.5.5.5.5.x k l l 9 # # # #                           ",
"                                    $ $ $ & j l l l S c.x.x.x.x.x.x.x.x.x.x.x.x.x.x.x.b.5.5.5.5.x k l l 9 # % # #                           ",
"                                    $ $ + & l l l l D c.x.x.c.x.x.x.x.x.x.x.x.x.x.c.c.b.5.5.5.5.x k l l 9 % # # $                           ",
"                                    $ $ $ & p a p p v C C C S z.z.z.z.z.z.x.z.z.z.z.z.*.=.#.#.#.j j p a 9 # $ $ $                           ",
"                                            % $ % % $ % $ % 9 l l l z l l l l l z l l p % % % % $ $ $ % $                                   ",
"                                            $ $ $ $ $ $ $ $ 8 l l l l l l l l l l l l u $ $ $ $ $ $ $ $                                     ",
"                                            $ $ $ $ $ $ $ $ 8 l l l l l l l l l l l l u $ $ $ $ $ $ $ $                                     ",
"                                            $ $ $ $ $ $ $ # 8 l l l l l l l l l l l l s $ $ $ $ $ $ $ $                                     ",
"                                                            & * * * * * * * * * * * * *                                                     ",
"                                                              + + + + # # + + + # # # $                                                     ",
"                                                              $ $ # $ $ $ $ $ $ $ $ $ $                                                     ",
"                                                              $ $ $ $ # $ $ $ $ $ # $ $                                                     ",
"                                                              $ $ $ $ $ $ $ $ $ $ $ $                                                       ",
"                                                                                                                                            ",
"                                                                                                                                            ",
"                                                                                                                                            ",
"                                                                                                                                            "
};
