/* XPM */
static char *result[] = {
/* columns rows colors chars-per-pixel */
"50 50 139 2 ",
"   c #0F111B",
".  c #151415",
"X  c #191616",
"o  c #1B1916",
"O  c #15161A",
"+  c #1A161B",
"@  c #151A1D",
"#  c #1C1A1C",
"$  c #211D1D",
"%  c #23221E",
"&  c #29241D",
"*  c #151C23",
"=  c #1C1B22",
"-  c #141E2A",
";  c #221D23",
":  c #241F29",
">  c #281F2B",
",  c #172225",
"<  c #1A2026",
"1  c #17232C",
"2  c #19212B",
"3  c #172737",
"4  c #1A2436",
"5  c #1C2837",
"6  c #242324",
"7  c #2A2524",
"8  c #2C2A25",
"9  c #26212A",
"0  c #2A232D",
"q  c #27292C",
"w  c #2E2C29",
"e  c #322E2A",
"r  c #34312C",
"t  c #2D2633",
"y  c #2F2933",
"u  c #2F2738",
"i  c #322A36",
"p  c #342C3B",
"a  c #392E3D",
"s  c #363132",
"d  c #3A3632",
"f  c #3C3A34",
"g  c #39313F",
"h  c #3C3C3B",
"j  c #433E3C",
"k  c #44413E",
"l  c #362E40",
"z  c #392D42",
"x  c #3C3243",
"c  c #3E3449",
"v  c #3F3B4A",
"b  c #413445",
"n  c #42364C",
"m  c #43394D",
"M  c #443752",
"N  c #463A53",
"B  c #493C56",
"V  c #4A3C5A",
"C  c #434341",
"Z  c #4B4542",
"A  c #4D4A44",
"S  c #4D4C4C",
"D  c #534D45",
"F  c #534E49",
"G  c #53514E",
"H  c #58524C",
"J  c #4D4256",
"K  c #4E415B",
"L  c #53435D",
"P  c #535350",
"I  c #5F5B55",
"U  c #615C54",
"Y  c #666058",
"T  c #6A655E",
"R  c #6E695E",
"E  c #4E4161",
"W  c #524363",
"Q  c #594766",
"!  c #574865",
"~  c #5A4A66",
"^  c #554768",
"/  c #57496A",
"(  c #5C4C6E",
")  c #5D4C71",
"_  c #5E5071",
"`  c #61516F",
"'  c #604D72",
"]  c #635375",
"[  c #685875",
"{  c #6A5779",
"}  c #6C597D",
"|  c #6E6862",
" . c #756E64",
".. c #797066",
"X. c #757268",
"o. c #7A726B",
"O. c #7F796F",
"+. c #7F7B70",
"@. c #827C74",
"#. c #887F76",
"$. c #8D867C",
"%. c #8F897F",
"&. c #90897E",
"*. c #6E5A81",
"=. c #715C84",
"-. c #948D84",
";. c #988F87",
":. c #9A9287",
">. c #969489",
",. c #9E968B",
"<. c #9D988A",
"1. c #A3998F",
"2. c #A59E93",
"3. c #ABA296",
"4. c #ACA49A",
"5. c #B0A79D",
"6. c #B2AA9C",
"7. c #B5ACA1",
"8. c #B9AEA2",
"9. c #BDB4A6",
"0. c #BFB4A8",
"q. c #C1B6A5",
"w. c #C1B7A8",
"e. c #C2B9AB",
"r. c #C8BDAE",
"t. c #C8BEB1",
"y. c #C8C0AC",
"u. c #CDC3B5",
"i. c #D1C6B6",
"p. c #D4CABA",
"a. c #DACEBE",
"s. c #DCD2C2",
"d. c #E1D6C5",
"f. c #E7DCC7",
"g. c #E8DCC7",
"h. c #E6DBC9",
"j. c #EADDCA",
"k. c #EDE2CE",
"l. c #242F3A",
/* pixels */
"l.l.l.l.l.l.l.l.l.l.l.l.l.l.l.l.l.l.l.l.l.l.l.l.l.l.l.l.l.l.l.l.l.l.l.l.l.l.l.l.l.l.l.l.l.l.l.l.l.l.",
"l.l.l.l.l.l.l.l.l.l.l.l.l.l.l.l.l.l.l.l.l.l.l.l.l.l.l.l.l.l.l.l.l.l.l.l.l.l.l.l.l.l.l.l.l.l.l.l.l.l.",
"l.l.l.l.l.l.l.l.l.l.l.l.l.l.l.l.l.l.l.l.l.l.l.l.l.l.l.l.l.l.l.l.l.l.l.l.l.l.l.l.l.l.l.l.l.l.l.l.l.l.",
"l.l.l.l.l.l.l.l.l.l.l.l.l.l.l.l.l.l.l.l.l.- - * = # # < = = < l.l.l.l.l.l.l.l.l.l.l.l.l.l.l.l.l.l.l.",
"l.l.l.l.l.l.l.l.l.l.l.l.l.l.l.l.l.l.* = ; y n L ~ ( ~ Q J n i : = # l.l.l.l.l.l.l.l.l.l.l.l.l.l.l.l.",
"l.l.l.l.l.l.l.l.l.l.l.l.l.l.l.l.* = p J _ { } *.=.=.=.=.} } ] ~ N u = * l.l.l.l.l.l.l.l.l.l.l.l.l.l.",
"l.l.l.l.l.l.l.l.l.l.l.l.l.l.* 6 b ( [ [ ] ) ) ( ' ' ' ' ) ) ( ) ) ( J i = * l.l.l.l.l.l.l.l.l.l.l.l.",
"l.l.l.l.l.l.l.l.l.l.l.l., ; x _ [ ' ) ( ( ) ) ( ' ( ( ( ) ( ( ( ( ) ( L n 0 = , l.l.l.l.l.l.l.l.l.l.",
"l.l.l.l.l.l.l.l.l.l.5 = i ! ] ) ( ) ( ( ( ( ( ( ~ ( ( ) ( ( ( ( ( ( ( E V B a # * l.l.l.l.l.l.l.l.l.",
"l.l.l.l.l.l.l.l.l.1 = n _ ) ) ) ( ( ( ( ( ) ( ( ( ( ( ( ( ( ) ( ( ( W V V V V z # - l.l.l.l.l.l.l.l.",
"l.l.l.l.l.l.l.l.< # m ] ) ) Q ( ( ( ( ( ( ( ) ) ( ( ( ( ( ( ( ( ( ( V V M V V B a # l.l.l.l.l.l.l.l.",
"l.l.l.l.l.l.l.l.# b ( ( K x u B W W W E E / / ) ) ( ) ( ( ) ( ( ( W V B z V B c M 0 # l.l.l.l.l.l.l.",
"l.l.l.l.l.l.l.@ t Q V t ; > z V V V V V V V E W ( ( ( ( ) ( ( / W V V M y N V B V n = = l.l.l.l.l.l.",
"l.l.l.l.l.l.1 # m W M z c N V B V V V B V V V V V V W W W W E V V V B M > m V V V V i + l.l.l.l.l.l.",
"l.l.l.l.l.l.* > B N V V V B B B M n M B V V V V V V V B V V V V V B V n > n n M V V M = - l.l.l.l.l.",
"l.l.l.l.l.l.@ i M n B V V n i : # # = 9 t x B V B V V V V V V V B V V x ; n a 0 M V V x @ 1 l.l.l.l.",
"l.l.l.l.l.l.# g M M V m u $ 6 C F 7 X 9 t > y m V V V V V V N M M V V t ; M n ; a V V B i @ , l.l.l.",
"l.l.l.l.l.4 @ n V N i $ 7 U ;.6.9.;.Z # i m x b B V B V V V V M N V x = 9 N B 9 ; n B V V i = - l.l.",
"l.l.l.l.l.4 @ n M 0 $ D ;.9.e.q.8.6.4.U # y B V V V V V V V V n M N : X t B V y # u c c B B g o - l.",
"l.l.l.l.l.3 # i = 8 o.6.t.,.H w w s I ;.I # u B V V V V V V V M n t O X x V K p . + = 9 9 9 = @ l.l.",
"l.l.l.l.l.l.* o 8 &.e.p.$.7 # A +.+.U $.-.k # l V V B V V V V N t = = $ n V V a @ l.l.* O @ l.l.l.l.",
"l.l.l.l.l.l.l.* d 0.h.<.6 . $ d k T 6.s.1.@.f # n N n a z B n 0 ; a ; y K V V p * l.l.l.l.l.l.l.l.l.",
"l.l.l.l.l.l.l.1 w w.4.e # w k C b 8 I s.a.6.-.& 9 x N n t > ; 0 n p = v V V V i O l.l.l.l.l.l.l.l.l.",
"l.l.l.l.l.l.l.l.# X.k # h P P P P k w y.g.i.8.U o g B V M x x N n ; t B V V V t * l.l.l.l.l.l.l.l.l.",
"l.l.l.l.l.l.l.l.@ F U 6 C F G G G h d u.j.e.1.,.w 6 N V V V V V y 9 M B V V M ; - l.l.l.l.l.l.l.l.l.",
"l.l.l.l.l.l.l.l.* 8 4.+.e w C S Z 6 | d.k.4.D 4.U X g V V V B b ; c V B v N z = l.l.l.l.l.l.l.l.l.l.",
"l.l.l.l.l.l.l.l.l.% 6.j.0. .j e e Y u.h.j.2.8 :.-.# t V V V m 0 l V V B v x ; @ l.l.l.l.l.l.l.l.l.l.",
"l.l.l.l.l.l.l.l.- d u.g.j.h.p.9.e.s.r.q.h.X.% -.T + > V V B l z V V V N l = * l.l.l.l.l.l.l.l.l.l.l.",
"l.l.l.l.l.l.l.l.@ $.f.h.f.f.j.j.j.j.e.2...6 6 d # + t V V M n V V M x 7 = - l.l.l.l.l.l.l.l.l.l.l.l.",
"l.l.l.l.l.l.l.< 7 e.f.h.f.f.j.f.g.2.f $ . . # 6 x p n V V V M b i ; + @ l.l.l.l.l.l.l.l.l.l.l.l.l.l.",
"l.l.l.l.l.l.l., e i.d.a.f.d.a.j.i.j . . # 0 a n m b x a y 0 ; # # @ l.l.l.l.l.l.l.l.l.l.l.l.l.l.l.l.",
"l.l.l.l.l.l.l.1 8 r.:.&.j.6...j.2.$ @ + + = = ; = + + # ; # . o 8 6 l.l.l.l.l.l.l.l.l.l.l.l.l.l.l.l.",
"l.l.l.l.l.l.l.l.# G j | 0.$.A 9.R + i 6 ; t a t . $ # # a m u # # 6 l.l.l.l.l.l.l.l.l.l.l.l.l.l.l.l.",
"l.l.l.l.l.l.l.l.l.O O 6 8 6 # 6 # = i a x a t $ ; V n ; : n n ; $ q l.l.l.l.l.l.l.l.l.l.l.l.l.l.l.l.",
"l.l.l.l.l.l.l.l.l.l.l.l.l.l.l.O t x y ; # ; $ . x ( N p # = = + & = l.l.l.l.l.l.l.l.l.l.l.l.l.l.l.l.",
"l.l.l.l.l.l.l.l.l.l.l.l.l.l.l.* # ; = t b M i = V W z n ; # ; o w < l.l.l.l.l.l.l.l.l.l.l.l.l.l.l.l.",
"l.l.l.l.l.l.l.l.l.l.l.l.l.l.l.l.@ # c K Q ~ i ; J J M n 0 = g # # 1 l.l.l.l.l.l.l.l.l.l.l.l.l.l.l.l.",
"l.l.l.l.l.l.l.l.l.l.l.l.l.l.l.l.# 0 W ( ( / t $ N N x z y # n 6 + - l.l.l.l.l.l.l.l.l.l.l.l.l.l.l.l.",
"l.l.l.l.l.l.l.l.l.l.l.l.l.l.l.l.+ i ( W / / q # y z i 0 # + n i . l.l.l.l.l.l.l.l.l.l.l.l.l.l.l.l.l.",
"l.l.l.l.l.l.l.l.l.l.l.l.l.l.l.l.+ a ' n m ~ y # k j k F C # m n O l.l.l.l.l.l.l.l.l.l.l.l.l.l.l.l.l.",
"l.l.l.l.l.l.l.l.l.l.l.l.l.l.l.l.# n / ! z x 9 d 7.q.q.e.2.% a J # l.l.l.l.l.l.l.l.l.l.l.l.l.l.l.l.l.",
"l.l.l.l.l.l.l.l.l.l.l.l.l.l.l.l.+ M / ) ~ M 0 7 4.j.g.s.+.# c J $ 1 l.l.l.l.l.l.l.l.l.l.l.l.l.l.l.l.",
"l.l.l.l.l.l.l.l.l.l.l.l.l.l.l.< = J ( ) ( ( J ; e R  .Z # y V v ; - l.l.l.l.l.l.l.l.l.l.l.l.l.l.l.l.",
"l.l.l.l.l.l.l.l.l.l.l.l.l.l.l.* + t a c c c l y # . . . # < 6 @ # l.l.l.l.l.l.l.l.l.l.l.l.l.l.l.l.l.",
"l.l.l.l.l.l.l.l.l.l.l.l.l.l.l.l.l.@ O . ; s = X X . . o # @ l.l.l.l.l.l.l.l.l.l.l.l.l.l.l.l.l.l.l.l.",
"l.l.l.l.l.l.l.l.l.l.l.l.l.l.l.l.l.l.# F 1...6 8 R &.F o = l.l.l.l.l.l.l.l.l.l.l.l.l.l.l.l.l.l.l.l.l.",
"l.l.l.l.l.l.l.l.l.l.l.l.l.l.l.l.l.* # I T $ 8 -.7.3.o.# l.l.l.l.l.l.l.l.l.l.l.l.l.l.l.l.l.l.l.l.l.l.",
"l.l.l.l.l.l.l.l.l.l.l.l.l.l.l.l.l.l.l.O   O # 8 7 # @ @ l.l.l.l.l.l.l.l.l.l.l.l.l.l.l.l.l.l.l.l.l.l.",
"l.l.l.l.l.l.l.l.l.l.l.l.l.l.l.l.l.l.l.l.l.l.l.l.l.l.l.l.l.l.l.l.l.l.l.l.l.l.l.l.l.l.l.l.l.l.l.l.l.l.",
"l.l.l.l.l.l.l.l.l.l.l.l.l.l.l.l.l.l.l.l.l.l.l.l.l.l.l.l.l.l.l.l.l.l.l.l.l.l.l.l.l.l.l.l.l.l.l.l.l.l."
};
