/* XPM */
static char *_555e3ab9cba478bb448a8c05b2e895dKD2jIuhIgFgpLTAk[] = {
/* columns rows colors chars-per-pixel */
"46 44 105 2 ",
"   c None",
".  c #414141",
"X  c #444444",
"o  c gray27",
"O  c #464646",
"+  c gray28",
"@  c #494949",
"#  c gray29",
"$  c #4C4C4C",
"%  c #5A5A5A",
"&  c #606060",
"*  c gray38",
"=  c #646464",
"-  c #656565",
";  c #676767",
":  c #686868",
">  c DimGray",
",  c #6C6C6C",
"<  c #6D6D6D",
"1  c gray43",
"2  c #6F6F6F",
"3  c gray44",
"4  c #717171",
"5  c #727272",
"6  c gray45",
"7  c #818181",
"8  c gray51",
"9  c #838383",
"0  c gray52",
"q  c #868686",
"w  c #8E8E8E",
"e  c gray56",
"r  c #909090",
"t  c gray57",
"y  c #939393",
"u  c gray58",
"i  c gray59",
"p  c gray60",
"a  c #9B9B9B",
"s  c gray61",
"d  c #9D9D9D",
"f  c gray62",
"g  c #9F9F9F",
"h  c #A0A0A0",
"j  c gray63",
"k  c #A2A2A2",
"l  c gray64",
"z  c #A5A5A5",
"x  c gray65",
"c  c gray66",
"v  c #AAAAAA",
"b  c gray67",
"n  c #ACACAC",
"m  c gray68",
"M  c #AEAEAE",
"N  c gray69",
"B  c #B1B1B1",
"V  c #B2B2B2",
"C  c gray70",
"Z  c #B4B4B4",
"A  c gray71",
"S  c #B6B6B6",
"D  c #B7B7B7",
"F  c gray72",
"G  c #B9B9B9",
"H  c gray73",
"J  c gray74",
"K  c gray75",
"L  c #C0C0C0",
"P  c #C1C1C1",
"I  c gray76",
"U  c #C3C3C3",
"Y  c gray77",
"T  c #C5C5C5",
"R  c #C6C6C6",
"E  c gray78",
"W  c #C8C8C8",
"Q  c gray79",
"!  c #CACACA",
"~  c #CBCBCB",
"^  c gray80",
"/  c #CDCDCD",
"(  c #CECECE",
")  c gray81",
"_  c #D0D0D0",
"`  c gray82",
"'  c LightGray",
"]  c gray83",
"[  c gray84",
"{  c #D7D7D7",
"}  c #D8D8D8",
"|  c gray85",
" . c #DADADA",
".. c gainsboro",
"X. c #DDDDDD",
"o. c gray87",
"O. c #DFDFDF",
"+. c gray88",
"@. c #E2E2E2",
"#. c gray89",
"$. c #E4E4E4",
"%. c gray90",
"&. c #E6E6E6",
"*. c #E7E7E7",
"=. c gray91",
/* pixels */
"                                                                                            ",
"                            ~ ) ) ) ) ) ) ) ) ) ) ) ) v v A ) )                             ",
"                            _ _ ) ) ) ) _ _ _ _ ) ) _ n n A ) )                             ",
"                          I _ _ {  . .) _ _ _ _ T I I n n V I I G                           ",
"                      _ _ _ _ _ O.*.*._ _ _ _ _ G n n n n n n n I _ _                       ",
"                      _ _ _ _ _ +.*.=._ _ _ _ _ G n n v n n n n T _ _                       ",
"                I ) ) _ _ { +.*. .{ _ _ _ _ _ _ ) ~ ~ ~ ~ I n n V V A 3 1 :                 ",
"                I _ ) _ )  .*.*.{ _ _ _ _ _ _ _ ) ) _ _ ) T n n n n n 3 3 :                 ",
"                I _ _ _ _  .=.*. ._ _ _ _ _ _ _ ) ) _ _ _ T V V n n n 3 3 :                 ",
"                I _ _ =.*.*.*.*.{ _ _ _ _ _ _ _ _ _ ) ) _ _ ) ) G n n 3 3 1                 ",
"                I _ _ =.*.*.*.*. .) _ _ _ _ _ _ _ _ _ ) ) ) ) _ G v n 3 3 :                 ",
"                t a d O.+. ._ _ T ~ T I T T _ _ T T I ~ ~ ~ _ _ I K G * * %                 ",
"                . X X _ _ T n n       n n G _ _ G n n       _ _ _ _ _ @ X .                 ",
"                . X @ _ _ T n n       n v G _ _ G n n       _ _ ) ) _ X X .                 ",
"                . X X _ _ K                 _ _                 9 9 9 X X .                 ",
"                . X @ _ _ I                 _ _                 : 3 3 X X .                 ",
"                X @ $ _ ) K                 _ _                 ; 3 3 @ @ X                 ",
"      ) ) K     : 3 3 _ _ I           3 1 t _ _ ) ) )           : 3 3 1 3 :     K ) )       ",
"      _ ) I     : 3 3 _ _ I           3 3 t ) ) ) ) _           : 3 3 1 3 :     I ) )       ",
"      ) ) I       1 1 _ _ I           t t d ~ ~ I I I           : 3 3 1 1       A T I       ",
"G _ _ _ _ I           _ _ _ _ _ t 3 3 _ _ I     d n n 3 3 3 3 3 3 3 3           d n n 3 3 ; ",
"G _ _ _ ) I           _ _ _ _ _ t 3 3 _ _ K     h n n 3 3 3 3 3 3 3 3           h n n 3 1 ; ",
"            ) )                 a a a A A V v v v v n a a w                 v v             ",
"            ) _                 d n n n n n n n n n n n n h                 n n             ",
"            ) ~                 x A V v v n A A n v v A A x                 v x             ",
"                                _ *.+.      +.+.      +.+.{                                 ",
"                                { =.*.      *.*.      +.*.{                                 ",
"                                  O.O.      O.O.      O.O.                                  ",
"                                                                                            ",
"                                                                                            ",
"                            *.*.      *.*._     _ =.*.      *.*.                            ",
"                            =.*.      *.*.{     { =.*.      *.*.                            ",
"                            +.+.      *.*._     { *.+.       . .                            ",
"                            x x h h h _ _ _ ) _ ) _ _ 1 1 1 3 6                             ",
"                            h h h x h _ _ _ _ _ _ _ _ 1 : 1 1 1                             ",
"                            d d d h x _ _ _ _ _ G n n 1 1 : ; :                             ",
"                h n n           i h x ) _ _ _ _ t 1 1 1 : ;           n n h                 ",
"                h n n           i h x ) _ _ _ _ t : : 1 : ;           v n h                 ",
"      ) ) I v v                                                             n n q 1 1       ",
"      _ ) T n n                                                             n n q 3 3       ",
"      ) ~ K x x                                                             x x q 1 1       ",
"            6 6                                                             6 3             ",
"            3 3                                                             3 3             ",
"            1 1                                                             1 1             "
};
