/* XPM */
static char *_502abbd61d341f3b91820a51d96fba5aKrfHLpw2Hht60Y9[] = {
/* columns rows colors chars-per-pixel */
"46 28 94 2 ",
"   c None",
".  c gray25",
"X  c #414141",
"o  c #444444",
"O  c gray27",
"+  c #464646",
"@  c gray28",
"#  c #4B4B4B",
"$  c gray30",
"%  c gray33",
"&  c #585858",
"*  c gray35",
"=  c #5B5B5B",
"-  c gray37",
";  c #606060",
":  c gray39",
">  c #646464",
",  c gray40",
"<  c #676767",
"1  c #686868",
"2  c DimGray",
"3  c #6C6C6C",
"4  c #6D6D6D",
"5  c gray43",
"6  c #6F6F6F",
"7  c gray44",
"8  c #717171",
"9  c #727272",
"0  c gray45",
"q  c #777777",
"w  c gray49",
"e  c #8D8D8D",
"r  c #909090",
"t  c #929292",
"y  c #979797",
"u  c gray62",
"i  c #9F9F9F",
"p  c #A0A0A0",
"a  c gray63",
"s  c #A5A5A5",
"d  c gray66",
"f  c #AAAAAA",
"g  c gray67",
"h  c #ACACAC",
"j  c gray68",
"k  c #AEAEAE",
"l  c gray69",
"z  c #B1B1B1",
"x  c #B2B2B2",
"c  c gray70",
"v  c #B4B4B4",
"b  c gray71",
"n  c #B6B6B6",
"m  c #B7B7B7",
"M  c gray72",
"N  c #B9B9B9",
"B  c gray73",
"V  c #BBBBBB",
"C  c #BCBCBC",
"Z  c gray",
"A  c gray75",
"S  c #C0C0C0",
"D  c #C1C1C1",
"F  c gray76",
"G  c #C3C3C3",
"H  c gray77",
"J  c #C5C5C5",
"K  c gray78",
"L  c #C8C8C8",
"P  c gray79",
"I  c #CACACA",
"U  c #CBCBCB",
"Y  c gray80",
"T  c #CDCDCD",
"R  c #CECECE",
"E  c gray81",
"W  c #D0D0D0",
"Q  c gray82",
"!  c LightGray",
"~  c gray83",
"^  c #D5D5D5",
"/  c gray84",
"(  c #D7D7D7",
")  c #D8D8D8",
"_  c gray85",
"`  c #DDDDDD",
"'  c gray87",
"]  c gray88",
"[  c #E1E1E1",
"{  c gray89",
"}  c #E4E4E4",
"|  c gray90",
" . c #E6E6E6",
".. c #E7E7E7",
/* pixels */
"                            J L L L L L L L L L L L L s s c J J                             ",
"                            W W W W W W W W W W W W W h h N W W                             ",
"                            W W W W W W W W W W W T T h h N W T                             ",
"                      T T T W W ' ....W W W W W Z c c h h h c c F T T                       ",
"                      W W W W W ] ....W W W W W N h h g h g h h J T W                       ",
"                      W W ~ _ ~ ' ] ] W W W W W F b N N N b h h Z J J                       ",
"                F W W W W _ ....~ W W W W W W W W W W W W J h h h h h 7 7 2                 ",
"                F W W W W _ ...._ W W W W W W W W W W W W J h h h h h 7 7 2                 ",
"                F W W ' ' ] ...._ W W W W W W W W W W W W L F F b g h 7 7 2                 ",
"                F W W .........._ W W W W W W W W W W W W W W W N h h 7 7 2                 ",
"                Z T T ..........~ T T W W W W W T T T T T T W W Z h h 4 7 2                 ",
"                % * - W ~ L c b       h c Z W W Z c c       W W T L T # $ o                 ",
"                . o o W W J h h       h g N T W N h h       W W T W W # o .                 ",
"                . o # W W F g g       g g N W W N g g       W W Z Z Z o o .                 ",
"                . o # W W Z                 W W                 < 7 4 # o .                 ",
"                . o o W W F                 W W                 2 7 7 o o .                 ",
"      L L       * - ; W W Z           4 4 y W W L L L           < 7 7 - - *       L L       ",
"      W W F     2 7 7 W W F           7 4 t W W W W W           < 7 7 7 7 2     F W W       ",
"      W W F     < 4 7 W W Z           7 7 t T T W T T           < 7 7 4 4 <     F T W       ",
"N T L W W F           W W T T T e 4 4 F F b     g c c 4 7 4 4 7 7 7 7           s c c 7 7 ; ",
"N W W W W F           W W W W W t 7 7 W W F     p h h 7 7 7 7 7 7 7 7           p h h 7 7 < ",
"N T T W T F           T W T W T t w w L L N     p h h w w q 4 7 7 7 4           i g h 7 7 ; ",
"            W W                 p h h h h h h h h h h h h p                 h h             ",
"            W W                 i h h h h h h h h h h h h p                 h h             ",
"                                Z T T     b T T b   y T T F                                 ",
"                                ~ ....      ....      ....~                                 ",
"                                ~ ....      ..]       ] ..W                                 ",
"                                                                                            "
};
