/* XPM */
static char *_96f8180e3184ec3dddeee775cffd103aFnvW4wfQxOiCW7G[] = {
/* columns rows colors chars-per-pixel */
"41 14 55 1 ",
"  c None",
". c #676767",
"X c #686868",
"o c #6A6A6A",
"O c gray42",
"+ c #6C6C6C",
"@ c #6F6F6F",
"# c gray44",
"$ c gray45",
"% c #797979",
"& c gray48",
"* c #8E8E8E",
"= c gray57",
"- c #929292",
"; c #959595",
": c gray59",
"> c gray60",
", c #9B9B9B",
"< c gray61",
"1 c #9D9D9D",
"2 c gray62",
"3 c #A0A0A0",
"4 c gray63",
"5 c #A2A2A2",
"6 c gray64",
"7 c #A7A7A7",
"8 c gray66",
"9 c #A9A9A9",
"0 c gray67",
"q c #ACACAC",
"w c #B2B2B2",
"e c gray",
"r c #C0C0C0",
"t c #C1C1C1",
"y c #C3C3C3",
"u c gray77",
"i c #C5C5C5",
"p c #C6C6C6",
"a c gray79",
"s c #CACACA",
"d c #CBCBCB",
"f c gray81",
"g c #D0D0D0",
"h c gray82",
"j c gray83",
"k c gray84",
"l c #D8D8D8",
"z c gray85",
"x c #DADADA",
"c c gray86",
"v c gainsboro",
"b c #E2E2E2",
"n c gray90",
"m c #E6E6E6",
"M c #E7E7E7",
/* pixels */
"            mm   xMx  xmm   mMv          ",
"            mm   xMx  xmm   mmv          ",
"            kxy  kbk  kbb   aay          ",
"            33363fggggfgg&++++.          ",
"            33363fggggggg&++++X          ",
"       3    22233aggggw22$++XX    3      ",
"      3qq     ,33agggg:++++X     6q9     ",
"      3qq     ,36fgggg:++++X     9q9     ",
" pfy9q                              9q=+#",
" pgyqq                              qq:##",
" yae99                              99=++",
"    ##                              +#X  ",
"    ##                              +#+  ",
"    ##                               #   "
};
