/* XPM */
static char *result[] = {
/* columns rows colors chars-per-pixel */
"50 50 229 2 ",
"   c #020202",
".  c #05080B",
"X  c #0B0B0C",
"o  c #100F0F",
"O  c #0E0F10",
"+  c #0E1113",
"@  c #0E161C",
"#  c #121314",
"$  c #191817",
"%  c #161718",
"&  c #16181A",
"*  c #1B1B1C",
"=  c #26221D",
"-  c #0F1D29",
";  c #1E1F20",
":  c #1F2022",
">  c #17262B",
",  c #172837",
"<  c #232425",
"1  c #292724",
"2  c #262728",
"3  c #26292A",
"4  c #2A2B2C",
"5  c #312E28",
"6  c #3A332A",
"7  c #2E2F30",
"8  c #2F3031",
"9  c #25363A",
"0  c #333334",
"q  c #363738",
"w  c #373839",
"e  c #3A3B3C",
"r  c #432F1C",
"t  c #4A3B2B",
"y  c #463E36",
"u  c #49443A",
"i  c #5B4832",
"p  c #594A39",
"a  c #664D36",
"s  c #6D5234",
"d  c #68553B",
"f  c #76593B",
"g  c #183648",
"h  c #19374F",
"j  c #323E44",
"k  c #3E3F40",
"l  c #243E57",
"z  c #233F60",
"x  c #1F445E",
"c  c #3F4041",
"v  c #2A495A",
"b  c #32545A",
"n  c #1F4766",
"m  c #224C63",
"M  c #275768",
"N  c #265675",
"B  c #395C74",
"V  c #2C6679",
"C  c #357077",
"Z  c #33727D",
"A  c #434345",
"S  c #464748",
"D  c #474849",
"F  c #4B4C4C",
"G  c #554C44",
"H  c #535046",
"J  c #4E4F50",
"K  c #4F5051",
"L  c #525354",
"P  c #5A5953",
"I  c #565758",
"U  c #575859",
"Y  c #5B5B5C",
"T  c #63594F",
"R  c #695949",
"E  c #775E46",
"W  c #7C644B",
"Q  c #6D6558",
"!  c #766A53",
"~  c #766959",
"^  c #4E6466",
"/  c #586C6D",
"(  c #646464",
")  c #666768",
"_  c #6B6B6C",
"`  c #796E62",
"'  c #77736C",
"]  c #747475",
"[  c #7D7974",
"{  c #7B7C7D",
"}  c #815E3B",
"|  c #82613E",
" . c #8A643F",
".. c #8A6A46",
"X. c #936D48",
"o. c #8D744C",
"O. c #98744A",
"+. c #886D57",
"@. c #8C7459",
"#. c #987A54",
"$. c #A3794C",
"%. c #A27C50",
"&. c #857767",
"*. c #977C66",
"=. c #BC8853",
"-. c #96876F",
";. c #9B896A",
":. c #87817A",
">. c #B78C63",
",. c #B79666",
"<. c #A28D78",
"1. c #B19871",
"2. c #B8A47C",
"3. c #C78E57",
"4. c #C19767",
"5. c #D7B16E",
"6. c #C8A57B",
"7. c #D5A977",
"8. c #E4A464",
"9. c #E8A866",
"0. c #EBB16C",
"q. c #EBB675",
"w. c #F1BC76",
"e. c #EBC277",
"r. c #F6C67B",
"t. c #F5CB7C",
"y. c #275489",
"u. c #2B648C",
"i. c #316E8A",
"p. c #326F8B",
"a. c #2C6897",
"s. c #387A99",
"d. c #255FAB",
"f. c #2A65A6",
"g. c #3277A9",
"h. c #3277AE",
"j. c #2D6FC9",
"k. c #3176C7",
"l. c #337BCB",
"z. c #357ED0",
"x. c #3A84AC",
"c. c #478A9B",
"v. c #7F8081",
"b. c #449DB4",
"n. c #3885CC",
"m. c #3783D2",
"M. c #3C8DD3",
"N. c #3E92D4",
"B. c #3E92D9",
"V. c #4097D6",
"C. c #4299DB",
"Z. c #4AAAD3",
"A. c #459FE1",
"S. c #48A5E1",
"D. c #4BACE4",
"F. c #4FB4E8",
"G. c #51B7E6",
"H. c #53BCEA",
"J. c #5CCAD7",
"K. c #57C4EB",
"L. c #5ACBED",
"P. c #5ED3EC",
"I. c #57C5F1",
"U. c #5BCDF1",
"Y. c #5ED3F3",
"T. c #60D7EE",
"R. c #61D8F5",
"E. c #62DCF5",
"W. c #68E5F9",
"Q. c #848484",
"!. c #868788",
"~. c #8B8B8C",
"^. c #8F9091",
"/. c #939393",
"(. c #989897",
"). c #9B9C9D",
"_. c #A89C91",
"`. c #BAA38B",
"'. c #ABA49D",
"]. c #9E9FA0",
"[. c #9FA0A1",
"{. c #A2A3A4",
"}. c #A6A7A8",
"|. c #ABACAD",
" X c #242F3A",
".X c #242F3A",
"XX c #242F3A",
"oX c #242F3A",
"OX c #242F3A",
"+X c #242F3A",
"@X c #242F3A",
"#X c #242F3A",
"$X c #242F3A",
"%X c #242F3A",
"&X c #242F3A",
"*X c #242F3A",
"=X c #242F3A",
"-X c #242F3A",
";X c #242F3A",
":X c #242F3A",
">X c #242F3A",
",X c #242F3A",
"<X c #242F3A",
"1X c #242F3A",
"2X c #242F3A",
"3X c #242F3A",
"4X c #242F3A",
"5X c #242F3A",
"6X c #242F3A",
"7X c #242F3A",
"8X c #242F3A",
"9X c #242F3A",
"0X c #242F3A",
"qX c #242F3A",
"wX c #242F3A",
"eX c #242F3A",
"rX c #242F3A",
"tX c #242F3A",
"yX c #242F3A",
"uX c #242F3A",
"iX c #242F3A",
"pX c #242F3A",
"aX c #242F3A",
"sX c #242F3A",
"dX c #242F3A",
"fX c #242F3A",
"gX c #242F3A",
"hX c #242F3A",
"jX c #242F3A",
/* pixels */
"fXfXfXfXhXjXjXjXfXdXdXfXjXjXjXgXfX].}.hXjXjXjXfXfXeXS ] pXjXhXfXfXfXfXjXjXjXfXfXsXfXhXhXjXhXfXfXdXfX",
"fXaXaXfXhXjXjXjXdXsXsXfXjXjXjXhXeX0 * .XjXjXjXfXfX!.# ; L wXhXaXsXaXhXjXjXjXfXaXaXfXjXjXjXhXsXaXsXgX",
"fXfXfXfXhXhXhXjXiX5XsXgXjXhXhXhX~.# 7 3 3XjXhXfX8X< 2 L 4 0 3XfXfXfXhXfXhXhXfXfXfXfXjXhXhXhXfXfXfXfX",
"hXjXjXjXfXaXsXfX X* ] uXdXsXfXeX0 < Y 7 0 qXfXhX) + w F Y 0 4 5XjXjXhX.X] iXjXjXjXhXfXsXsXfXjXjXjXgX",
"hXjXjXhXfXfXaXaXU * 2 k XXsXsX~.X q I I * Y aX.X# 4 e S Y Y 4 0 eXjXfX)   ) dXjXjXjXfXaXaXfXjXjXjXhX",
"fXfXfXfXhXhXjX8X& 0 Y q < ).tX7 * w L U S & |.A & q q c I U I : I pXyX4 2 * _ pXfXfXjXjXjXjXfXfXfXgX",
"fXaXsXfXjXjXjXQ.X q Y Y A ; S O 4 w F L L & < # 7 0 q y F L I D # {.|.O e F & Q.aXfXjXjXhXqXaXaXaXgX",
"fXfXfXwX8XjXuX4 & 0 K I Y 4   * 7 w F J L ;   * 0 8 0 c S F L L : S L # e U e $ .XhXhXaX{ 4 7XgXfXfX",
"jXjXjX].4 XX).X < 7 S L U A + 2 4 e k S F < X 4 7 7 7 k w A F J 7 X X = e K L < J fXwXU * + { jXjXhX",
"hXjXjX_   2 4 O 2 4 A D K F 2 4 4 0 0 c S 2 < 7 7 7 7 0 0 k S k 4 . . 4 w D L k & (.k & L 0 8 pXjXhX",
"fXfXpXA 1 q . ; < 4 e e F A 3 3 4 4 4 e k 4 4 4 4 7 4 7 7 k k 0 7 # # 8 q w S e . + $ S Y F # .XfXfX",
"fXfX8X* : K 5 ; < 2 7 0 A 0 < < < 2 4 q 7 2 2 4 3 4 3 4 7 0 7 4 7 * : 7 8 0 c 0 X ; e F K K # ~.fXgX",
"fXhX.XX * u 7 ; ; < < 8 w < < < < < 3 7 2 2 2 2 2 2 3 3 4 4 4 3 4 4 2 4 4 8 0 4 1 0 k e D K # { hXgX",
"hXjX~.  * 4 : ; ; ; : 4 2 : < ; < ; < < < < < < 2 2 1 3 2 2 2 3 3 4 4 4 4 4 7 4 7 0 7 q F F # v.jXgX",
"hXhXY . * ; * * * * ; ; * ; * ; ; ; * & % % & ; * & $ $ $ * & & $ $ % % * * * * * * * 3 5 7 O [.jXgX",
"hXtX4 . + + o + O + + @ & @ @ - - - , , g g h h h v m m M N N N V V V Z i.Z Z Z Z Z Z C C M * 5XfXhX",
"gX{.@ v m n N N u.a.a.g.h.h.x.x.l.k.k.l.m.M.M.C.C.S.D.G.H.K.I.U.Y.R.R.R.E.E.W.E.W.W.W.W.W.J.3 oXfXfX",
"gX) M W.K.N.B.N.M.N.M.M.B.B.B.N.M.l.k.n.m.M.M.V.C.S.D.G.H.K.K.U.U.Y.Y.R.E.E.E.E.E.W.W.W.W.J.9 oXhXhX",
"gXP C W.K.M.n.l.n.k.n.m.m.M.M.N.N.l.j.l.z.m.m.B.C.C.D.D.F.H.K.K.L.U.U.Y.R.R.R.R.E.E.W.W.W.J.3 qXjXhX",
"hXY V W.L.n.l.l.k.k.k.l.l.n.n.N.N.z.j.k.l.z.m.M.C.C.S.D.D.F.G.H.H.K.I.I.U.U.U.Y.R.E.E.E.W.b.j pXjXhX",
"hX' M T.L.N.h.l.m.n.n.M.N.N.N.N.N.m.j.j.k.l.z.m.m.B.C.B.A.S.D.D.F.F.H.H.I.I.U.Y.R.Y.Y.U.Y.M _ dXfXgX",
"hX/.g P.P.G.C.B.N.N.N.N.C.x.a.B B B y.y.d.d.f.f.f.f.a.a.a.u.a.a.a.s.p.p.s.s.s.s.c.c./ ( b > .XdXaXfX",
"hX;X> b.Z.Z.g.a.u.V N N x w s  .O.O.X.W R y < ; 6 R W +.&.@.#.*.*.*.*.*.+.G 6 r d ..O.$.s Q fXhXgXgX",
"hXaX^ 9 y d f } .. .$.$.r i | } |  ...X.O.%.%.O...W o.;.6.=X<X2X<X<X+X*.E f ..X...| f s R 7XjXjXjXgX",
"hXjXgX(.s 8.9.9.9.8.9.8.=.f s u G i a a a f }  .X.$.$.O...p 2.2X,X*.a } ..} f i R T &.y {.hXjXjXjXgX",
"fXuX3X(.u  .$.3.8.8.8.8.9.r.5.' 7XXX}.(.:.' ( T i t a f s p &X2X,XR i d Q &.[ X )  XQ ' hXhXsXsXsXgX",
"pX[ ;.2.OX6.2.o.=.9.8.8.e.t.e.;.eXjXjXjXjXjXdX).3   Y ~.u +X1X1X,X6.~ 4XsXjXsX] [.).y XXjXhXsXsXaXgX",
"wXT *X*X-X#X*X=X6.8.8.0.t.t.t.e.6.%X9XuXaXdXsX3XY Q oX;X<.:X1X1X>X,X<.8XfXfXaX0X'.<.G tXfXhXhXhXhXhX",
"sX' 2.1X>X&Xo.#X1Xe.8.q.t.t.t.t.t.e.5.7.7.6.OXOXOX6.OX@X-X>X>X>X<X,X=X`.`._._.+X=X<.] aXaXfXjXjXjXgX",
"hX5X! &X1X>X+X@X1X6.8.0.t.t.t.t.t.t.r.w.w.0.0.q.q.w.*X5.1.R u p -.@X<X<X,X,X<X<X<X( |.gXfXgXjXjXjXgX",
"fXsX|.~ @X1X1X>X1.i 3.0.t.t.t.t.t.t.-Xt.*Xw.q.7.4.#.d 6 1 8 q q 7 q ` +X:X<X2XrX:XP tXjXjXhXsXsXsXgX",
"fXdXdX4X:.<.2.;.:.].W =.r.t.t.t.t.t.e.5.,.o.a t = < 3 0 w e j c F F k y J Q &.:.&.Y fXjXjXhXsXsXfXsX",
"gXjXjXjXaX7XXX8XfXjXqX&.#.5.5.,.#.d t = $ $ * : : 4 8 8 0 q e e A K I U L L J A # { fXfXfXfXjXsX|.!.",
"hXjXjXjXfXsXfXfXjXjXjXfX X` 5 $ < 4 ; % # % * ; : 3 4 4 7 0 0 q A F F K I I A 7 ] iXsXsXdXuX}.J 4 XX",
"gXjXjXgXfXfXfXfXhXhXjXhXfXaXoX[ c < : : * $ $ * ; : : 3 2 4 8 0 A D D A q 4 L .XgXjXfXeX^.K I e ).hX",
"dXsXaXsXjXjXjXjXfXaXaXfXjXjXjXhXyX3X/.( c < # # + & $ ; : < < 4 7 4 4 A ] oXpXfXsX0X~.D F Q._ { aXhX",
"fXsXaXsXjXjXjXjXfXaXaXfXjXjXjXhXdXdXfXjX5XS < * X + X # $ * * # # ( 7XaXjXjXdX5X] A F ] {.{ Y tXdXhX",
"gXjXjXjXfXfXfXfXhXjXjXhXfXfXfXgXjXjXjX0XI A q < + 4 0 ; 8 e 0 q < L aXfXfXfX^.w K _ ~.}.!.J qXjXhXgX",
"jXjXjXjXsXaXaXfXjXjXjXjXaXaXaXfXjXjXiXU A c 2 % 2 : 2 ; # % 8 k 0 : ].dXfXeXk ( { (.}./.F  XjXjXjXhX",
"gXgXjXhXfXfXfXfXhXhXhXhXfXfXfXhXhXgXv.e F q ; % 2 2 * % < & + 2 e < k |.8XQ.w Q.{.[./.U !.hXhXhXhXgX",
"fXaXaXaXjXjXjXjXfXaXaXfXjXjXjXhXsX6Xj S c 2 % ; 4 4 1 ; # * 2 : 7 4 0 u ! >.-.(.Q.{ !.{.fXjXaXsXsXgX",
"fXsXsXfXjXjXjXjXfXdXdXfXjXjXjXgXaX!.7 F u y 5 1 2 1 < 4 0 3 4 e q 2 t f ..6.#XH ).wXhXjXjXhXsXsXsXgX",
"hXjXjXjXfXfXdXfXhXjXjXhXdXfXfXhX^.W 4.@X#X#X#X*., l v m v F u F b v p #.>.#.u &.dXjXfXdXfXgXjXjXjXgX",
"jXjXjXjXdXaXaXfXjXjXjXjXaXsXsXhXQ.X.-X$X$X-X#X4.z f.f.h.s.Q f ( s.h.U >.W u {.hXjXjXsXaXaXfXjXjXjXgX",
"gXhXhXgXfXgXfXfXgXgXhXgXfXfXfXjX XG >.OX7.>.X.s X . . . . % # $ 2 & # P (.6XgXgXfXgXfXfXfXgXgXgXhXgX",
"fXaXaXaXjXjXjXjXaXaXaXdXjXjXjXsXuX3X:.+.&.&.Q.<     . #     X Q.5XQ.{ uXhXgXaXiXiXaXgXjXjXfXpXaXpXfX",
"fXaXaXaXgXgXgXfXiXiXuXpXsXsXaXuXtXtXeXeXwXuX|.: X X ; S X X # ~.qXwXtXuXyXuXeXwXeXtXpXaXaXaXuXuXpXsX",
"fXfXfXfXiXuXtXuXiXuXyXeXqX0X8X0X0X8X8X5X3X X8 o o # & # % # # < v.]. XoXoX3X6X8X0X8X7X8X0XqXeXuXuXyX",
"sXfXfXaXeXwXqXqXeXqXqX8X3XXX.XoXoXXXXX|.}.~.+       & 0 w 3 + 3 e k I ].{.{. X.XXXXX.XXXXX3X8X0XqXqX",
"pXiXuXyXeXqXqX8X8X6X5XoXXX.X X X|.}.{.[.].~.0 X X X * < < 4 * < < 4 F /.).).].{.}.}.|.|. XXX3X3X5X6X"
};
