/* XPM */
static char *result[] = {
/* columns rows colors chars-per-pixel */
"50 50 137 2 ",
"   c #0F1113",
".  c #161415",
"X  c #191616",
"o  c #151A16",
"O  c #1A1816",
"+  c #15161B",
"@  c #1A161B",
"#  c #151A1D",
"$  c #1C191C",
"%  c #201C17",
"&  c #221C1C",
"*  c #23201E",
"=  c #0E1B22",
"-  c #131721",
";  c #151B22",
":  c #1C1B22",
">  c #131E28",
",  c #181F29",
"<  c #221D24",
"1  c #241E29",
"2  c #152123",
"3  c #1B2123",
"4  c #162229",
"5  c #1A222A",
"6  c #252324",
"7  c #292624",
"8  c #2A2826",
"9  c #25212A",
"0  c #2A232D",
"q  c #2E2C2A",
"w  c #312D2A",
"e  c #35322E",
"r  c #2C2632",
"t  c #2F2833",
"y  c #312935",
"u  c #342C3B",
"i  c #382F3E",
"p  c #363332",
"a  c #393632",
"s  c #3D3A35",
"d  c #36313C",
"f  c #3D3939",
"g  c #413B34",
"h  c #413E39",
"j  c #46423D",
"k  c #49453D",
"l  c #372E41",
"z  c #392E41",
"x  c #3B3244",
"c  c #3E3449",
"v  c #423547",
"b  c #42364D",
"n  c #43394D",
"m  c #433752",
"M  c #463A53",
"N  c #493C56",
"B  c #463A58",
"V  c #4A3C5A",
"C  c #4F3F61",
"Z  c #4C4741",
"A  c #4C4944",
"S  c #4E4D4B",
"D  c #514D46",
"F  c #53514E",
"G  c #59544D",
"H  c #4B4157",
"J  c #4E425D",
"K  c #504057",
"L  c #53445E",
"P  c #535250",
"I  c #5B5351",
"U  c #5F5C54",
"Y  c #645D55",
"T  c #645C5C",
"R  c #6C655C",
"E  c #4F4161",
"W  c #534463",
"Q  c #574A66",
"!  c #564668",
"~  c #564969",
"^  c #5C4C6D",
"/  c #5D4C71",
"(  c #604E74",
")  c #655376",
"_  c #66547B",
"`  c #69567B",
"'  c #6D5A7C",
"]  c #686760",
"[  c #6C6862",
"{  c #756E67",
"}  c #757066",
"|  c #7B7167",
" . c #7A726A",
".. c #7D786F",
"X. c #7D7872",
"o. c #80786F",
"O. c #817B74",
"+. c #8A8277",
"@. c #8A847B",
"#. c #6F5C82",
"$. c #705E84",
"%. c #948D84",
"&. c #969187",
"*. c #959089",
"=. c #9B948A",
"-. c #9F998C",
";. c #9F9A90",
":. c #A1978C",
">. c #A19A8C",
",. c #A59F94",
"<. c #AAA295",
"1. c #ADA499",
"2. c #AFA899",
"3. c #B0A69B",
"4. c #B4AA9D",
"5. c #B5AAA1",
"6. c #B9AFA3",
"7. c #BBB3A6",
"8. c #BEB6A9",
"9. c #BFB8AA",
"0. c #C5BBAD",
"q. c #C6BEB2",
"w. c #C8BDB2",
"e. c #CCC1B3",
"r. c #D0C5B6",
"t. c #D0C5BB",
"y. c #D7CBBB",
"u. c #DACEBF",
"i. c #DAD1BD",
"p. c #DBD3C2",
"a. c #E2D6C5",
"s. c #E4D9C6",
"d. c #E8DBC7",
"f. c #E7DCC9",
"g. c #E9DCCA",
"h. c #E9E0CF",
"j. c #242F3A",
/* pixels */
"j.j.j.j.j.j.j.j.j.j.j.j.j.j.j.j.j.j.j.j.5 , ; ; 5 4 j.j.j.j.j.j.j.j.j.j.j.j.j.j.j.j.j.j.j.j.j.j.j.j.",
"j.j.j.j.j.j.j.j.j.j.j.j.j.j.j.j.j.; ; 3 1 t l x d t 9 : ; j.j.j.j.j.j.j.j.j.j.j.j.j.j.j.j.j.j.j.j.j.",
"j.j.j.j.j.j.j.j.j.j.j.j.j.j.; # < p N ^ ` #.$.$.$.' ) L v 6 $ 2 j.j.j.j.j.j.j.j.j.j.j.j.j.j.j.j.j.j.",
"j.j.j.j.j.j.j.j.j.j.j.j., # 1 x L ^ ( ) _ ` ` ` _ ) ) ` ` ) H t : 2 j.j.j.j.j.j.j.j.j.j.j.j.j.j.j.j.",
"j.j.j.j.j.j.j.j.j.j.j.; & u N ^ / / ^ ^ ^ ^ / ^ ^ / / ^ / ( ` _ H t ; 5 j.j.j.j.j.j.j.j.j.j.j.j.j.j.",
"j.j.j.j.j.j.j.j.j.j.; 1 b V W / ^ ^ ^ ^ ^ ^ ^ ^ ^ ^ ^ ^ ^ ^ ^ ( _ ( n 6 ; j.j.j.j.j.j.j.j.j.j.j.j.j.",
"j.j.j.j.j.j.j.j.j.# 0 m V V C ^ ^ ^ ^ / / ^ ^ ^ ^ ^ ^ ^ ^ / ^ / / / ) Q t $ j.j.j.j.j.j.j.j.j.j.j.j.",
"j.j.j.j.j.j.j.j.$ 1 M V V V V ! ^ / ^ ^ ^ ^ ^ / / ^ ^ / ^ ^ ^ ^ ^ ^ ^ ( ^ u : j.j.j.j.j.j.j.j.j.j.j.",
"j.j.j.j.j.j.j.; : v V V m M V C ^ ^ ^ / ^ ^ ^ / ^ ^ ^ ^ ^ ^ ^ ^ ^ ! ~ / / ~ y # j.j.j.j.j.j.j.j.j.j.",
"j.j.j.j.j.j.j.$ y N m M z m V V E ^ ^ ^ / ^ ^ ^ / ^ ~ ! C C C C W v r v ! / W 9 2 j.j.j.j.j.j.j.j.j.",
"j.j.j.j.j.j.; 1 M B m n y m V N J E ~ ^ ^ ^ ^ ^ ! W V V V V V V V M u < 0 c ! v ; j.j.j.j.j.j.j.j.j.",
"j.j.j.j.j.j.$ u V V V n 1 b V V V V V E E E C V V V V V V V V V V V N v i z V J 6 3 j.j.j.j.j.j.j.j.",
"j.j.j.j.j.; 1 M V V b i 1 v V V V V V N V V V V V V V V V V N m M N V V V N N V t # j.j.j.j.j.j.j.j.",
"j.j.j.j.5 $ z V V n 0 u < v N V V V M M N N B V V V N c t 1 < < < r x N V m b V c # j.j.j.j.j.j.j.j.",
"j.j.j.2 # y V V V t 1 v < y c N V V M M N V V V V N u 1 0 < . 6 h 7 @ r b M b V M < > j.j.j.j.j.j.j.",
"j.j.; < u V V N c : y M < r t N V V B c N V V V N c l n y @ j %.3.=.R w @ u M V M < > j.j.j.j.j.j.j.",
"j.> X y M N m c r @ z V 9 0 9 c H H B c M V V B V V N y @ F ,.:.9.0.4.-.F $ 0 M M < ; j.j.j.j.j.j.j.",
"j.j.; : 1 0 1 : + X c V t 3 r 9 m V J V V V V V V V l & D 1.6.+.R D j T &.} 6 : x 6 5 j.j.j.j.j.j.j.",
"j.j.j.j.- # # j.3 @ v V z $ d < y V V V V V V V V v @ h +.1.0.Y S G f @ w +.@.8 @ $ j.j.j.j.j.j.j.j.",
"j.j.j.j.j.j.j.j.j.< v V b < y y : x V V V V V V n 1 w =.6.y.a.u.e.@.U q o q &.Y X > j.j.j.j.j.j.j.j.",
"j.j.j.j.j.j.j.j.j.$ x V V r 1 n r : x V V V c c r & | 0.u.d.g.w.k 8 p q 3 X k A ; j.j.j.j.j.j.j.j.j.",
"j.j.j.j.j.j.j.j.j.$ l m n x < x M 0 $ z b y l x @ Z 3.w.d.d.g.o.6 S P P A w O o > j.j.j.j.j.j.j.j.j.",
"j.j.j.j.j.j.j.j.j.; y M b B r 0 V M l , 1 u M y & @.5.p.d.d.g.R q F P F P S 8 + j.j.j.j.j.j.j.j.j.j.",
"j.j.j.j.j.j.j.j.j.> 6 M V V c 1 x V V n v V B $ k 1.{ r.g.d.g.+.6 S P P S p $ # j.j.j.j.j.j.j.j.j.j.",
"j.j.j.j.j.j.j.j.j.j.$ z V N V l 0 M V V V V i O o.=.g w.g.d.g.e.h q f p 8 j 7 # j.j.j.j.j.j.j.j.j.j.",
"j.j.j.j.j.j.j.j.j.j.; & x V V V u z V V V V 0 & *.@.7 7.d.y.a.g.7.Y A Y :.w.s - j.j.j.j.j.j.j.j.j.j.",
"j.j.j.j.j.j.j.j.j.j.j.; @ t m H N z b V V V r X h { * { u.4.y.d.g.a.i.s.g.g.R # j.j.j.j.j.j.j.j.j.j.",
"j.j.j.j.j.j.j.j.j.j.j.j.j.o $ y b M M V V V u < < < $ % G @.0.g.d.g.g.g.d.g.6.6 j.j.j.j.j.j.j.j.j.j.",
"j.j.j.j.j.j.j.j.j.j.j.j.j.j.j.# : 0 z v M N M c b t < @ . X s 0.f.f.g.d.f.d.p.h ; j.j.j.j.j.j.j.j.j.",
"j.j.j.j.j.j.j.j.j.j.j.j.j.j.j.j.j.; : @ 1 0 y i x x u 1 O X   { f.i.e.h.u.y.p.k - j.j.j.j.j.j.j.j.j.",
"j.j.j.j.j.j.j.j.j.j.j.j.j.j.j.j.j.j.j.+ @ < < # X X @ : @ @ X k s.<. .h.2.| t.s > j.j.j.j.j.j.j.j.j.",
"j.j.j.j.j.j.j.j.j.j.j.j.j.j.j.j.j.j.; 1 v n r @ 9 < : y u r & 8 >.X.I 7.@.a I : j.j.j.j.j.j.j.j.j.j.",
"j.j.j.j.j.j.j.j.j.j.j.j.j.j.j.j.j.j.# r n x @ r J M $ 6 y x u : & & & 6 3 @ + j.j.j.j.j.j.j.j.j.j.j.",
"j.j.j.j.j.j.j.j.j.j.j.j.j.j.j.j.j.j.: @ < @ $ z W ~ 0 @ < $ < r l 9 # j.j.j.j.j.j.j.j.j.j.j.j.j.j.j.",
"j.j.j.j.j.j.j.j.j.j.j.j.j.j.j.j.j.j.j.@ 0 $ 6 u V / z $ x c r $ 6 $ = j.j.j.j.j.j.j.j.j.j.j.j.j.j.j.",
"j.j.j.j.j.j.j.j.j.j.j.j.j.j.j.j.j.j.# 9 n $ r z v ! v @ M ! V x $ # j.j.j.j.j.j.j.j.j.j.j.j.j.j.j.j.",
"j.j.j.j.j.j.j.j.j.j.j.j.j.j.j.j.j.j.$ u M @ y l v M v $ M / ^ L 9 # j.j.j.j.j.j.j.j.j.j.j.j.j.j.j.j.",
"j.j.j.j.j.j.j.j.j.j.j.j.j.j.j.j.j.; X n b @ < r u i 0 X n ^ ~ ~ t # j.j.j.j.j.j.j.j.j.j.j.j.j.j.j.j.",
"j.j.j.j.j.j.j.j.j.j.j.j.j.j.j.j.j.X % H x @ p f e a 8 $ N J b ^ l # j.j.j.j.j.j.j.j.j.j.j.j.j.j.j.j.",
"j.j.j.j.j.j.j.j.j.j.j.j.j.j.j.j.# o 1 W y 7 -.4.2.4.O.$ x y V ~ c # j.j.j.j.j.j.j.j.j.j.j.j.j.j.j.j.",
"j.j.j.j.j.j.j.j.j.j.j.j.j.j.j.j.$ . r ~ u 8 7.a.p.a.%.$ r N ^ Q c $ j.j.j.j.j.j.j.j.j.j.j.j.j.j.j.j.",
"j.j.j.j.j.j.j.j.j.j.j.j.j.j.j.j.$ X u Q H < Z >.0.<.s < H ( ^ ^ H $ j.j.j.j.j.j.j.j.j.j.j.j.j.j.j.j.",
"j.j.j.j.j.j.j.j.j.j.j.j.j.j.j.j.6 $ < t u r @ @ 6 $ $ x L Q W J c @ j.j.j.j.j.j.j.j.j.j.j.j.j.j.j.j.",
"j.j.j.j.j.j.j.j.j.j.j.j.j.j.j.j.7 w & o X ; + X . . @ 6 1 < & $ @ # j.j.j.j.j.j.j.j.j.j.j.j.j.j.j.j.",
"j.j.j.j.j.j.j.j.j.j.j.j.j.j.j.j.< 8 3 # j.j.j.o e D 7   a [ a @ 4 j.j.j.j.j.j.j.j.j.j.j.j.j.j.j.j.j.",
"j.j.j.j.j.j.j.j.j.j.j.j.j.j.j.j.j.j.j.j.j.j.= 8 <.y.4.G % } =.w # j.j.j.j.j.j.j.j.j.j.j.j.j.j.j.j.j.",
"j.j.j.j.j.j.j.j.j.j.j.j.j.j.j.j.j.j.j.j.j.j.j.$ a k Y A @ $ 6 : j.j.j.j.j.j.j.j.j.j.j.j.j.j.j.j.j.j.",
"j.j.j.j.j.j.j.j.j.j.j.j.j.j.j.j.j.j.j.j.j.j.j.j.j.j.  + j.j.j.j.j.j.j.j.j.j.j.j.j.j.j.j.j.j.j.j.j.j.",
"j.j.j.j.j.j.j.j.j.j.j.j.j.j.j.j.j.j.j.j.j.j.j.j.j.j.j.j.j.j.j.j.j.j.j.j.j.j.j.j.j.j.j.j.j.j.j.j.j.j.",
"j.j.j.j.j.j.j.j.j.j.j.j.j.j.j.j.j.j.j.j.j.j.j.j.j.j.j.j.j.j.j.j.j.j.j.j.j.j.j.j.j.j.j.j.j.j.j.j.j.j."
};
