/* XPM */
static char *result[] = {
/* columns rows colors chars-per-pixel */
"50 50 101 2 ",
"   c #161615",
".  c #191616",
"X  c #161816",
"o  c #1A1817",
"O  c #16171C",
"+  c #1A161B",
"@  c #141A1B",
"#  c #1C1A1C",
"$  c #211C1D",
"%  c #24211D",
"&  c #2B251F",
"*  c #171721",
"=  c #151B23",
"-  c #1D1B22",
";  c #191F28",
":  c #221D24",
">  c #251F29",
",  c #132025",
"<  c #14212A",
"1  c #1A222C",
"2  c #242224",
"3  c #2A2624",
"4  c #2F2A27",
"5  c #26212A",
"6  c #2A232D",
"7  c #2C2A28",
"8  c #312927",
"9  c #332E2A",
"0  c #35302D",
"q  c #3A332F",
"w  c #2D2531",
"e  c #2F2934",
"r  c #2F2939",
"t  c #302733",
"y  c #312A35",
"u  c #342C3B",
"i  c #392E3E",
"p  c #343234",
"a  c #3A3433",
"s  c #3C3936",
"d  c #37303C",
"f  c #39313D",
"g  c #3B3B3A",
"h  c #443B36",
"j  c #443C3A",
"k  c #4A3E39",
"l  c #44423F",
"z  c #372E42",
"x  c #3A2F43",
"c  c #373141",
"v  c #3B3243",
"b  c #3C3846",
"n  c #3F354A",
"m  c #403447",
"M  c #41364C",
"N  c #43394D",
"B  c #433751",
"V  c #463A52",
"C  c #4A3D56",
"Z  c #473B5A",
"A  c #4A3C5A",
"S  c #494441",
"D  c #4F4D46",
"F  c #4F4D4A",
"G  c #584E47",
"H  c #4D4157",
"J  c #4E425D",
"K  c #51435C",
"L  c #5F5952",
"P  c #4F4161",
"I  c #534464",
"U  c #564965",
"Y  c #584967",
"T  c #574769",
"R  c #584768",
"E  c #574969",
"W  c #5B4C6D",
"Q  c #5C4C71",
"!  c #634F72",
"~  c #625072",
"^  c #675378",
"/  c #6A567E",
"(  c #6F6A61",
")  c #736E67",
"_  c #797166",
"`  c #7B766D",
"'  c #7F796F",
"]  c #817B74",
"[  c #8A8478",
"{  c #A89F8D",
"}  c #AEA59A",
"|  c #B0AA9A",
" . c #B9B0A2",
".. c #C1B8A7",
"X. c #D0C4B3",
"o. c #D4C8B9",
"O. c #DBCEBC",
"+. c #DAD1BC",
"@. c #D8CFC0",
"#. c #DAD3C1",
"$. c #242F3A",
/* pixels */
"$.$.$.$.$.$.$.$.$.$.$.$.$.$.$.$.$.$.$.$.$.$.$.$.$.$.$.$.$.$.$.$.$.$.$.$.$.$.$.$.$.$.$.$.$.$.$.$.$.$.",
"$.$.$.$.$.$.$.$.$.$.$.$.$.$.$.$.$.$.$.$.$.$.$.$.$.$.$.$.$.$.$.$.$.$.$.$.$.$.$.$.$.$.$.$.$.$.$.$.$.$.",
"$.$.$.$.$.$.$.$.$.$.$.$.$.$.$.$.$.$.$.$.$.$.$.$.$.$.$.$.$.$.$.$.$.$.$.$.$.$.$.$.$.$.$.$.$.$.$.$.$.$.",
"$.$.$.$.$.$.$.$.$.$.$.$.$.$.$.$.$.$.$.$.$.$.$.$.$.$.$.$.$.$.$.$.$.$.$.$.$.$.$.$.$.$.$.$.$.$.$.$.$.$.",
"$.$.$.$.$.$.$.$.$.$.$.$.$.$.$.$.$.$.$.$.$.$.$.$.$.$.$.$.$.$.$.$.$.$.$.$.$.$.$.$.$.$.$.$.$.$.$.$.$.$.",
"$.$.$.$.$.$.$.$.$.$.$.$.$.$.$.$.$.$.$.$.$.1 1 , 2 , , = < 1 $.$.$.$.$.$.$.$.$.$.$.$.$.$.$.$.$.$.$.$.",
"$.$.$.$.$.$.$.$.$.$.$.$.$.$.$.$.$.$.@ - 5 u n V K K K H m y 5 = = $.$.$.$.$.$.$.$.$.$.$.$.$.$.$.$.$.",
"$.$.$.$.$.$.$.$.$.$.$.$.$.$.$.$.= > d H Q ~ ! ! ^ / / / ~ ~ Y C u - = $.$.$.$.$.$.$.$.$.$.$.$.$.$.$.",
"$.$.$.$.$.$.$.$.$.$.$.$.$.$.@ $ i I Q I K W W W W W W W W W Q Q W C w - = $.$.$.$.$.$.$.$.$.$.$.$.$.",
"$.$.$.$.$.$.$.$.$.$.$.$.$.+ 5 V W Q Q v y W Q W W W W ! W Q Q W Q I A m w * < $.$.$.$.$.$.$.$.$.$.$.",
"$.$.$.$.$.$.$.$.$.$.$.; + y C I W W Q N # v Y Q Q Q W W W W W W Q P Z A V y - = $.$.$.$.$.$.$.$.$.$.",
"$.$.$.$.$.$.$.$.$.$.= # i C A A W Q W E v # 6 N I Y W W W W Q W I A A C A A x # = $.$.$.$.$.$.$.$.$.",
"$.$.$.$.$.$.$.$.$.= $ i A A C A R Q W W Q C u 6 u C W W Q W W E A A C A C C A x # = $.$.$.$.$.$.$.$.",
"$.$.$.$.$.$.$.$.< # i A A A A A A I W W Q Q W E Y W W W W W W I Z A A A A A A A u # = $.$.$.$.$.$.$.",
"$.$.$.$.$.$.$.$.@ t A A A A A C A A I T W ! Q W W W Q W W W E A A A A A A A A A A y * $.$.$.$.$.$.$.",
"$.$.$.$.$.$.$.= 5 V A A C C A A A A A A E W W W W W W W W W I A A A C C A A A A A V > = $.$.$.$.$.$.",
"$.$.$.$.$.$., $ m A A C Z A A A A x M A A I T W W W Q W I P A A m x A A A A A V V Z n - = $.$.$.$.$.",
"$.$.$.$.$.$.@ 6 m M A A A A A A A M w V A A A P P P P A A A A m 6 B A A A A A A n V V t O $.$.$.$.$.",
"$.$.$.$.$., # m B B A A A C A C A V 6 u A A C A A A C C A A V > u A A A A A A A A V M x - = $.$.$.$.",
"$.$.$.$.$.@ 5 C A A A Z A A A A A A t > V A A C C C A A A A r : V A A A A A A A A A N N 6 = $.$.$.$.",
"$.$.$.$.$.@ t A A A A A A A A A A A x + x A A A A A A A A M : 6 C A A A A A A A A A A A u O $.$.$.$.",
"$.$.$.$.$.O v A A A A A A A C A A A M $ > A A A A A A A A u . x A A A A A A C A A A A A x + $.$.$.$.",
"$.$.$.$.$.+ x A A A A A C A A A A A C t + u A A A A A A A > + M A A A A C A A A A A A A v . $.$.$.$.",
"$.$.$.$.$.+ x A A C A A A A A C A C A B > + u C A A A A B : $ B A A A A A A A A A C A A v + $.$.$.$.",
"$.$.$.$.$.@ u A A A A A A A A C M V A A n : @ w N A A A V - - V A C A A A C A A A C A A i @ $.$.$.$.",
"$.$.$.$.$.@ 6 A N v N A A A A C V V C A A N 5 + : u m V u + > C A A A C A A C C N x z V t @ $.$.$.$.",
"$.$.$.$.$.@ : C V t > t V A A A M B A A A A Z u : + + - + : x A A A A A A A v 6 : w m N >   $.$.$.$.",
"$.$.$.$.$.$.+ u A V i + 6 V A A M B A A A A A Z N v u t y m C A C A A A V t - 5 n A A i O $.$.$.$.$.",
"$.$.$.$.$.$.= - v A A u + y C A Z C A A A A A A A P A A A A A A A C A N 5 # e V A A m : @ $.$.$.$.$.",
"$.$.$.$.$.$.$.@ - u V C u - n A A Z A A A A A A A A A A A A C A A A N > - v A A C u # O $.$.$.$.$.$.",
"$.$.$.$.$.$.$.$.$.+ : i v - > e N A A A A A A A A A A A A A A A A Z w 6 B A Z v 5 - = $.$.$.$.$.$.$.",
"$.$.$.$.$.$.$.$.$.$.$.+ + $ 9 3 > z V m M A A A A A A A A A A A A M u b n t 5 + * $.$.$.$.$.$.$.$.$.",
"$.$.$.$.$.$.$.$.$.$.$.$.$.= 2 0 0 2 , : 5 e m M M M M M n v v u y 6 5 : + @ $.$.$.$.$.$.$.$.$.$.$.$.",
"$.$.$.$.$.$.$.$.$.$.$.$.$.$.$.# 3 3 % s s o o o # : : : : - - + +   @ $.$.$.$.$.$.$.$.$.$.$.$.$.$.$.",
"$.$.$.$.$.$.$.$.$.$.$.$.$.$.$.o X # p g 2 & 0 % # w u x c u y y -   X # $.$.$.$.$.$.$.$.$.$.$.$.$.$.",
"$.$.$.$.$.$.$.$.$.$.$.$.$.$.= 5 # 7 p % % s l h 3 + - - 5 y n A n - # - = $.$.$.$.$.$.$.$.$.$.$.$.$.",
"$.$.$.$.$.$.$.$.$.$.$.$.$.O w J v o o o 9 7 a s % > b - # 6 z z t # t N # = $.$.$.$.$.$.$.$.$.$.$.$.",
"$.$.$.$.$.$.$.$.$.$.$.$.@ > N N t + 6 5 $ & 9 3 . v V # . $ # o # o u N u @ $.$.$.$.$.$.$.$.$.$.$.$.",
"$.$.$.$.$.$.$.$.$.$.$.; o - w f - > J Z r $ : # : N 6   . $ # + o X w f 5 $ - $.$.$.$.$.$.$.$.$.$.$.",
"$.$.$.$.$.$.$.$.$.$.= 3 ` ' S 3 o t K J E C 3   y v # . + > c v -   # p L [ D @ $.$.$.$.$.$.$.$.$.$.",
"$.$.$.$.$.$.$.$.$.$.O G @.X. .) + m K y U Q V - 2 : # 5 u N n 3 $ o % ] ..+.| 2 $.$.$.$.$.$.$.$.$.$.",
"$.$.$.$.$.$.$.$.$.$.@ 9 { @.@.( o V E u v W W H 6 o : f y : . $ a h 8 0 } o._ o $.$.$.$.$.$.$.$.$.$.",
"$.$.$.$.$.$.$.$.$.$.$.@ 2 S F 3 : H W K w N W W J b 5 o o # + 3 q h k 3 0 s - $.$.$.$.$.$.$.$.$.$.$.",
"$.$.$.$.$.$.$.$.$.$.$.$.$.$.$.O 5 Y Q W J r V W Q Q U v # o o 3 4 8 0 q @ $.$.$.$.$.$.$.$.$.$.$.$.$.",
"$.$.$.$.$.$.$.$.$.$.$.$.$.$.$.@ - N R W Q U C E Q Q W V u N B 6 # % % % = $.$.$.$.$.$.$.$.$.$.$.$.$.",
"$.$.$.$.$.$.$.$.$.$.$.$.$.$.$.$.O * 5 m J T W Q Q Q T I U I C t # X @ $.$.$.$.$.$.$.$.$.$.$.$.$.$.$.",
"$.$.$.$.$.$.$.$.$.$.$.$.$.$.$.$.$.#   . # > w u i x x y w - o   @ $.$.$.$.$.$.$.$.$.$.$.$.$.$.$.$.$.",
"$.$.$.$.$.$.$.$.$.$.$.$.$.$.$.$.$.$.@ @ o   # + O O O O o O . @ $.$.$.$.$.$.$.$.$.$.$.$.$.$.$.$.$.$.",
"$.$.$.$.$.$.$.$.$.$.$.$.$.$.$.$.$.$.$.$.$.$.$.$.$.$.$.$.$.$.$.$.$.$.$.$.$.$.$.$.$.$.$.$.$.$.$.$.$.$.",
"$.$.$.$.$.$.$.$.$.$.$.$.$.$.$.$.$.$.$.$.$.$.$.$.$.$.$.$.$.$.$.$.$.$.$.$.$.$.$.$.$.$.$.$.$.$.$.$.$.$."
};
