/* XPM */
static char *_ac3b4eb19aa43588ec7df597913c5ebgG7qXyfyQ1PQVz96[] = {
/* columns rows colors chars-per-pixel */
"70 70 146 2 ",
"   c #2F1621",
".  c #2C1923",
"X  c #321723",
"o  c #361926",
"O  c #381927",
"+  c #361B28",
"@  c #3A1C2A",
"#  c #3C212E",
"$  c #421E2E",
"%  c #451F30",
"&  c #4A1E31",
"*  c #43202F",
"=  c #452131",
"-  c #4A2233",
";  c #442835",
":  c #472A38",
">  c #4E2B3C",
",  c #532337",
"<  c #502236",
"1  c #502437",
"2  c #512437",
"3  c #502437",
"4  c #522338",
"5  c #542238",
"6  c #542338",
"7  c #552338",
"8  c #512438",
"9  c #522438",
"0  c #532438",
"q  c #532439",
"w  c #542439",
"e  c #552439",
"r  c #542539",
"t  c #552539",
"y  c #55253A",
"u  c #57243A",
"i  c #56253A",
"p  c #57253A",
"a  c #57253B",
"s  c #56253A",
"d  c #582339",
"f  c #58233A",
"g  c #59233A",
"h  c #58243A",
"j  c #59243B",
"k  c #58253B",
"l  c #59253B",
"z  c #58263B",
"x  c #59263B",
"c  c #5A263B",
"v  c #5B253C",
"b  c #59263C",
"n  c #5A263C",
"m  c #5B263C",
"M  c #5B263D",
"N  c #5C253C",
"B  c #5C263D",
"V  c #5D263D",
"C  c #5D273D",
"Z  c #5D263E",
"A  c #5D273E",
"S  c #5E263E",
"D  c #5E273E",
"F  c #5F273E",
"G  c #5F273F",
"H  c #5B263C",
"J  c #572A3E",
"K  c #502E3F",
"L  c #60253E",
"P  c #60263E",
"I  c #60263F",
"U  c #61263F",
"Y  c #60273F",
"T  c #61273F",
"R  c #63273F",
"E  c #60273F",
"W  c #60283F",
"Q  c #522E40",
"!  c #5B2D41",
"~  c #5E2D44",
"^  c #5F2D44",
"/  c #5F2E44",
"(  c #5F3248",
")  c #612740",
"_  c #622740",
"`  c #632740",
"'  c #622740",
"]  c #612840",
"[  c #622840",
"{  c #632840",
"}  c #632841",
"|  c #642841",
" . c #652841",
".. c #652941",
"X. c #662841",
"o. c #672841",
"O. c #652842",
"+. c #652942",
"@. c #662842",
"#. c #672842",
"$. c #662942",
"%. c #672942",
"&. c #672843",
"*. c #672943",
"=. c #602E43",
"-. c #602E44",
";. c #612E44",
":. c #672843",
">. c #682843",
",. c #682943",
"<. c #692943",
"1. c #682A43",
"2. c #692944",
"3. c #6A2944",
"4. c #6B2944",
"5. c #6B2945",
"6. c #692A44",
"7. c #6A2A44",
"8. c #6B2A44",
"9. c #6B2A45",
"0. c #6C2945",
"q. c #6C2A45",
"w. c #6D2A45",
"e. c #6C2B45",
"r. c #6D2B45",
"t. c #6D2A46",
"y. c #6D2B46",
"u. c #6E2A46",
"i. c #6E2B46",
"p. c #6F2B46",
"a. c #6F2B47",
"s. c #6B2944",
"d. c #712B47",
"f. c #712C47",
"g. c #702B47",
"h. c #712C48",
"j. c #722C48",
"k. c #732C48",
"l. c #732C49",
"z. c #722C48",
"x. c #663046",
"c. c #663147",
"v. c #673147",
"b. c #62334A",
"n. c #66364D",
"m. c #69374F",
/* pixels */
"^ 4.4.4.) h y y M 4.4.4.4.a.h.h.f.l.f.l.f.l.f.l.f.l.f.l.l.f.l.f.l.f.f.u.7.7.7.u.l.h.l.f.l.f.l.f.l.f.l.f.l.h.l.f.l.f.l.f.l.u.4.4.4.M @ @ @ @ ",
"^ 4.4.4.) y y h M *.*.4.*.a.h.h.l.f.l.f.l.f.l.f.l.f.l.f.f.l.f.l.f.l.f.u.7.7.<.u.h.l.f.l.f.l.f.l.f.l.f.l.h.l.f.l.f.l.f.l.f.u.4.4.4.N @ @ @ @ ",
"^ 4.4.*.) y y y y *.4.4.4.a.h.l.f.l.h.l.f.l.f.l.f.l.f.l.l.h.h.h.l.f.l.u.4.4.<.u.l.h.h.h.l.f.l.f.l.f.l.f.l.h.h.h.l.f.l.f.h.a.4.4.7.h @ @ @ @ ",
"^ 4.4.4.) h y y M *.4.4.4.f.l.h.l.h.l.h.l.f.l.f.l.f.l.f.h.h.h.h.f.l.f.u.4.4.4.u.h.l.h.h.f.l.f.l.f.l.f.l.h.h.h.h.f.l.f.l.h.4.4.*.7.M @ @ @ @ ",
"^ 4.4.4.O.) ) ) [ A W A A W [ [ [ N , - , 8 h h h x A [ [ [ [ u.5.a.a.4.&.4.*.4.e.4.a.4.[ [ [ W [ [ [ [ *.a.e.u.4.u.a.e.u.A h y y - % = = = ",
"/ 4.4.4.4.4.4.4.7.h y y y y y y y - @ @ @ @ = - - - 8 t J t M 4.4.*.4.*.4.4.4.4.4.4.4.[ y y y h y y y y N 7.4.*.4.*.4.4.4.8 - - ; - - - - - ",
"/ 7.7.<.4.&.4.*.*.y y h y h y y J - @ @ @ @ - - - - - t y y N 4.4.4.4.4.4.*.4.4.4.4.4.*.h y y y h h t y A 4.4.4.4.4.4.*.8.r - - - - = - = - ",
"/ 7.7.<.4.4.4.4.*.h y h y y y h t - @ @ @ @ = - - - 1 t y y N 4.4.4.4.4.4.4.4.4.4.4.4.*.h h h y y y t x A 4.4.4.*.4.4.4.*.8 - - - - - - - - ",
"! *.O.O.>.0.>.0.7.N M M M M M M N 4 $ $ $ % - 8 6 1 6 y y y h W ! ) ) ) ) ) U U U U [ N 8 8 y 1 y y y h N *.O.O.*.*.4.*.4.M 8 8 4 - = = = % ",
"> M 5 a ^ >.0.>.7.7.4.*.*.4.4.*.4.) y y y y O.4.8.8.A h h y 6 - & - - - = - - - - - - - - - - - 1 h y y y h y y M *.4.4.4.*.*.4.4.M @ @ @ @ ",
"> 5 5 5 L >.>.0.7.4.4.4.*.4.4.4.4.) y y y M *.4.8.7.A y t t 6 - - = - - - - - - - - - - - = = - y y h y y y a a a *.4.*.4.4.4.4.4.M @ @ @ @ ",
"> y f f ) >.>.>.<.4.4.&.4.4.4.*.4.O.y y y h *.4.7.7.W y y x 1 - - & - - - - - - - = - - - - - - 6 y y y h y 5 a M *.4.4.4.*.4.4.4.M @ @ @ @ ",
": y y y L >.&.&.&.&.&.&.&.4.&.&.*.! 5 y 5 f O.4.*.<.N 5 6 6 1 - = - - % - - & - = - & - & = = - 1 6 y 6 f f 4 5 d &.&.&.*.4.&.O.<.f @ @ @ @ ",
"@ % $ @ @ $ $ $ $ $ @ % @ % % % % = $ $ % $ @ $ @ $ @ O O O O O o o o @ O O O @ o @ @ @ o o o o @ @ @ @ @ X o O O @ @ @ @ @ @ $ $ @ X X X X ",
"# @ @ @ O X X O X X X X X + @ @ + @ @ @ @ @ X o X X X         X X X   X X X O X X X X X X   X X X X O X X       X       X X X X X X   X     ",
"+ @ @ @ O X O X X X o X o + @ @ @ @ @ @ @ + O X X X X X   X           X X X X o o X o X X       X X O X X   X     X X X X X X o o X     X   ",
". # @ @ + X X X o X X X X @ @ @ + @ @ @ @ @ X X X X X             X X X X X X X X X X X       X X X O X X     X           X X o X X X X     ",
": - 4 - - < < 5 - @ $ $ @ - 5 5 y 8 5 5 1 6 , , < , < & & < & @ @ @ @ - 5 - , , < < < < & < - - < & & < & $ $ @ $ $ $ $ $ @ @ $ @ $ & & & & ",
"n.4.4.4.u.k.k.k.a.- - - - O.k.k.h.l.l.k.k.k.d.d.l.k.f.f.k.k.7.- - - - w.k.k.k.k.k.k.k.k.k.k.l.k.4.4.4.4.[ y 8 a y y h h 5 4 - - - , <.4.4.4.",
"b.4.4.4.u.k.k.k.4.- - - - <.k.k.h.l.f.l.f.l.f.f.f.l.h.f.k.k.7.- - - - 7.k.k.f.f.k.k.k.k.k.k.h.f.4.4.4.4.) a a a y y y y a - - - - 5 <.7.4.4.",
"b.u.4.4.u.k.k.k.4.- - - - R h.f.f.f.h.h.l.f.f.f.f.h.h.f.f.h.*.- - - - 7.f.f.f.f.k.d.k.d.f.h.h.f.u.4.4.4.) a a a y y y y a - - - - y 7.7.7.7.",
"( O.O.7.4.k.k.a.4., - 8 - *.a.a.a.a.a.a.u.u.u.u.a.a.a.a.a.a.[ - $ - - R a.f.a.a.g.w.w.d.a.a.a.a.4.4.&.4.} a a M M M M a M 8 8 - - y *.O.7.7.",
"K f M 5 ! 4.4.4.7.O.*.*.7.A h M x y 1 - - - y h x x y - - - = @ @ @ @ - - - - 1 x x h h M h y M &.4.4.4.4.*.*.*.*.*.*.*.4.O.*.*.7.U h h h h ",
"> y y 5 L 4.4.*.7.7.7.4.4.N y y y 1 - - - - t h y x - - - - = @ @ @ @ - - - - 1 y h y y y y y y ) 4.4.4.4.&.4.4.7.7.4.4.4.4.4.4.7.*.y y y y ",
"> y y y W 7.7.<.<.4.4.4.7.N y y y 6 - - - - y y y y - - - - * @ @ @ @ - - - - - a a a a 5 a a y ) 4.4.4.4.4.4.4.7.<.4.4.4.4.4.4.7.W y y h y ",
"Q y y y A 7.7.7.<.4.4.4.u.N y h y 1 - - - - y y y h 1 - - - = @ @ @ @ * - - - 1 q a 4 a y a a a *.4.4.u.4.4.4.4.4.4.4.4.4.*.4.*.7.*.h y h y ",
": - - 1 1 y y y y N N N N ) ) O.[ A 1 1 1 8 y h h y y 1 1 y - @ @ # @ y F P A W } } ) ) ) [ [ [ N N N N v N N ! M y 5 y 8 8 8 y y 1 - - - - ",
": - - - - = - = - y y y y ) u.4.4.*.t t h y y y y y h y h h 1 @ @ @ @ W 7.7.w.7.4.4.4.4.4.4.4.4.M a y y y y h y 4 - - = - - - - - - - - - - ",
": - = - - - - - - y h y y *.<.4.4.[ y h y y y y y h y h y y - @ @ @ @ U w.<.4.<.4.4.4.4.4.4.4.4.N a a y 5 a a y q - - - - - - - - = - - - - ",
"; - - - = - = - - y f N h ) 4.u.4.*.y y y h h h y x y d h h , @ @ O $ U 4.<.4.4.4.4.4.4.4.4.4.4.N a y y a M y h q - - - - - - - - - - - - - ",
"# $ @ $ * $ @ * $ - - - - f f f y y - , - , - - - - - - - - $ O O + O < d d f f d d d d v f N f , - - - & - - - - = = = = % @ % * $ @ $ $ $ ",
". X X X   X X X X O X X X X X O X O @ @ @ @ o X o X X X X   X   X X     X X X X X X X X X X X O X X X o o X X X + @ + @ + o o X o X X X     ",
". X X X X   X X X O O X O X X X o o @ @ @ O o o X X X X X     X       X             X X X o O X O O X X X O X X O @ @ @ @ + X X X X X   X   ",
".     X     X X X X X X X O X X X @ @ @ @ @ o X O X X X     X X X     X   X   X X X     X X X X X X X O X X X O X @ @ @ @ + X o o X X X X   ",
". X X X X X X X X O O O O O O O @ @ @ @ @ @ o o O O O X X X o X X X X o o @ o o X X X X @ @ O O O O @ O O O O O O @ @ @ $ O O O O o X X X X ",
"z U U U U 7.O.O.&.>.&.&.>.&.L ! U h 1 6 1 1 1 1 < , U R R 7.R 7.R 7.7.R R R R R 7.R 7.7.<.R <.<.>.>.>.>.<.O.<.7.4.4.4.4.4.) ) ) U h * * $ * ",
";.w.7.7.u.k.k.k.d.l.l.d.h.a.4.4.4.[ y y y y h h 6 y 7.f.l.k.k.l.k.k.k.k.k.k.k.k.k.k.k.l.k.l.k.l.d.d.l.k.k.k.k.k.k.k.k.k.k.a.4.4.4.U - - - - ",
";.7.7.7.u.k.k.k.d.l.k.k.h.4.4.4.4.) y h h y y y y h *.f.h.f.k.f.k.f.k.f.k.k.k.k.f.k.k.f.k.f.k.h.k.k.l.l.f.k.l.h.k.k.k.k.k.4.&.4.7.U - - = - ",
";.4.<.<.u.k.k.k.k.k.k.k.h.a.*.4.4.[ y h y y h y y y *.f.f.f.f.f.k.k.k.k.k.k.k.k.k.k.k.k.f.l.f.h.k.k.k.l.l.f.f.f.k.k.k.k.k.4.4.4.7.W - - - - ",
";.4.<.4.O.O.) O.O.4.d.4.a.5.4.4.4.*.U [ U W W U W A *.R *.W *.A C C C C C C C P C C A A W *.R *.L N N N U *.*.W ) N ! N N M v a h , * $ # * ",
"! 4.*.4.! a y y z 4.4.4.4.4.*.4.4.4.4.*.4.*.4.4.4.4.A y y y 6 - - = - - - - - - - ; = - y y h y - - - - - h h y y - - - - = - - - * @ @ @ @ ",
"} 4.4.4.) a y y z *.4.*.4.*.4.4.*.4.4.4.4.4.*.4.4.4.A y y y 1 - - - = - - - - - - - - - y y y y - - - - 1 y y y y - - = - - - - - - @ @ @ @ ",
"^ 4.4.4.U y y h z 4.4.4.4.4.4.4.4.4.4.4.*.4.4.4.4.4.W y h y 1 - - - - - - - - - - - - - y h h y - - - - 1 y y h y - - - - - - = - * @ @ @ @ ",
"^ u.4.4.*.M M M N [ *.*.*.} *.} *.[ [ [ } } } } [ *.h 8 y y 1 - - - - - - - - - - - - - y y y y - - 1 - - y 1 y 4 - - - - - 8 - 1 - @ @ @ # ",
"v.k.l.h.u.*.7.7.*.h y z a a a a a 1 - - - - - - - - - - - - - = - - - y t t y y x y y y h t y h x J y y 8 - - - - = - - - M 4.*.7.F - * - - ",
"v.l.f.h.u.7.<.<.*.h y h a q a a q 1 - - - - - - - - - - - - - - - - - 8 t t y h h y y y z t y y t t y y 8 - - - - ; - - - A 4.4.7.P - - - - ",
"v.k.h.h.u.4.<.<.*.h y y a y q a a q - - - - - - - = = - - = - - - - - t t y y y t t x y y y h y y h h y 8 - = - - = - - - N 4.4.7.P - - - - ",
"v.d.d.d.u.<.<.<.*.y y y y y a q a 1 = - - - - - - - - - - - - - * - - - J y y y t t y y y y t J y y y y - - - - - - - - - M 4.*.7.C - - * - ",
"@ $ $ $ $ $ $ $ $ O $ O $ $ $ $ = @ # @ % @ @ @ @ @ O O X @ X o o o O O @ O O @ @ @ $ @ $ % # % $ @ $ @ @ @ @ @ @ O X O O @ $ $ $ @ o O O O ",
". X               X O X X O @ @ @ @ @ @ @ @ X X X o X X X   X X X X X   X   X X o o X X @ @ @ @ o X X X X O O X X X     X X       X         ",
"            . X X X X O o @ @ O @ @ @ @ @ + + + X X X X X     X   X     X     X o X o o @ @ @ @ O X X O X X X o X X X                 X X   ",
".         X   X X X X X X O @ O + @ + @ @ @ X X X X X         X     X         X X X X X @ + @ @ X O X X O X X X X X                         ",
"= & & & $ O O O @ % & % & - , - - 4 - , - - & % & & % % % % $ @ @ + @ $ % & & & & & & < , - , - % @ @ @ $ & - & & $ $ & $ & & $ & & & & & - ",
"n.f.f.k.W - - = , O.4.*.7.u.k.k.k.a.k.k.k.k.u.4.4.4.&.4.>.0.) - & - - 4.l.a.k.k.l.k.k.k.l.h.k.k.5 - - = M l.f.l.k.4.4.<.4.d.k.k.f.l.d.f.d.h.",
"m.d.h.k.W - - - - 4.4.4.4.u.f.l.k.k.k.k.k.k.4.4.4.4.4.4.4.4.) & - - - 4.k.k.a.k.a.k.k.k.h.l.h.h.y - - - h h.l.f.k.4.<.4.4.4.k.k.l.f.l.f.k.f.",
"m.k.l.k.W - - - - &.4.4.4.d.l.f.k.a.k.k.k.k.4.7.4.4.&.4.4.4.) & - - - 4.k.k.l.k.k.k.k.k.h.h.h.h.y - - = x l.f.l.k.4.4.<.4.d.k.k.f.l.f.l.f.k.",
"n.f.a.h.A - - - 4 4.*.4.4.u.a.h.k.d.u.u.u.u.7.*.7.7.*.7.*.7.N - = - - *.a.a.a.a.k.a.k.a.h.h.h.a.y - - - z h.h.a.d.4.4.*.*.a.a.a.h.h.a.a.a.a.",
"Q z z A h y y y a &.4.4.4.4.4.4.u.) - , 1 - 1 - - - 8 x h M y - - - - - - 8 - A 4.4.5.5.5.5.5.5.N 8 y y ! 4.4.4.<.v h M h z z z z N M M h M ",
"> a t t y y y y M *.4.4.4.4.4.4.4.! - - - - - = - - 1 x y y 8 - - - - - - - - h 4.*.4.4.4.*.5.*.N y y y N u.4.4.O.5 a a t h y y y y h y y y ",
"K y h y y h h y M *.4.*.*.4.*.4.4.z - - - - - - - - 1 t h y 8 - - = - - - - - z 4.4.*.4.4.4.4.4.N y a a N 4.4.4.&.v 5 a J y y h h y y y y y ",
"K y h y J y y h M 4.4.4.5.4.4.4.u.N - - - - - - - - 1 h y h y - - - - - - - - y 4.4.4.4.4.4.4.4.N M y y N u.4.4.4.h h y y h y y a y y y a 5 ",
"> y h y 8 - , - - y y y a ! N Z ) N N N A z 8 8 - 1 1 1 8 - - * # $ $ f z A N [ 4.4.&.*.A W A A y - 1 - 1 y y h y 1 1 - , - , 1 8 - - 4 8 8 ",
"K y t t 1 - - = - - - - - 8 a 5 y N 7.7.4.7.z z y h - - = - = @ @ @ @ ) 4.4.4.4.<.4.7.*.M y y y - - - - = - ; - - - - - - - - - = - - - % - ",
"K y y x 1 - - - - - = - - 4 a a y N 7.7.7.7.z t h h - - - - = @ @ @ @ ! 4.4.4.4.7.7.7.*.y y x h - - - - - - = - - - - = - - = - - - - - - - ",
"> d h h 1 - - - & & & - - 8 ! a a ^ >.>.>.>.v a a 5 8 - - - % @ @ # @ [ 5.4.4.4.4.4.4.<.v a 5 5 - - & - - - - - & % & - - - % - - - - - - % ",
"- - - - - * * $ % % % % % - & - & 4 L L L g & 4 4 - - % % = % @ @ @ @ a Z ! N Z Z Z Z f & & - , - % % % % % % # % % % % % # % % % % % % # % ",
". X X X X O O X O X O O X X X X X X X X X X O O o O @ @ @ @ + @ + @ @ @ @ @ @ @ X O O X X X X X X o o o X X   X X   X X X X X X   X   X X X ",
". X     X X O X O X X X X X X X         X X X X X X o @ @ @ @ @ @ @ @ @ @ @ @ @ X O X X X       X o X o X   X   X                     X   X ",
".   X X X X O X X O X X X X X     X   X     X X X o + @ @ @ + # + @ @ @ @ @ @ + O X O X X X   X X O X o X X       X       X X   X           ",
". X   X X X O X X X X O X X           X   X X X + X + @ @ @ @ @ @ @ @ @ @ @ @ + O X X X   X   X X X O X X     X   X   X             X X X   "
};
